<svg version="1.1" id="Layer_1" xmlns="http://www.w3.org/2000/svg" xmlns:xlink="http://www.w3.org/1999/xlink" x="0px" y="0px"
	 width="100%" viewBox="0 0 525 584" xml:space="preserve">
<path fill="#123856" opacity="1.000000" stroke="none" 
	d="
M208.788605,184.095612 
	C204.165878,187.845078 199.789459,191.959732 194.873901,195.275024 
	C180.546890,204.937927 164.471771,206.096420 147.461807,204.165527 
	C146.742462,203.997482 146.438156,203.816650 145.981232,203.417236 
	C148.090790,202.478088 150.317719,201.300339 152.621735,201.122803 
	C159.519958,200.591324 166.565811,201.146912 173.338730,200.003159 
	C184.945984,198.042999 194.509521,191.611359 203.451492,184.208435 
	C204.914154,182.997528 206.911392,182.432373 208.835434,182.177612 
	C208.935730,183.222855 208.862167,183.659225 208.788605,184.095612 
z"/>
<path fill="#3DA27B" opacity="1.000000" stroke="none" 
	d="
M406.113434,500.044434 
	C400.202789,494.696777 394.324097,489.313263 388.372070,484.012115 
	C382.973633,479.204010 377.457886,474.527222 372.084412,469.691956 
	C371.031921,468.744934 370.393768,467.337433 369.208923,465.659943 
	C368.210876,464.801849 367.568451,464.426147 366.926025,464.050476 
	C366.926025,464.050476 366.983307,464.001099 366.980652,463.729370 
	C366.627319,463.316620 366.276642,463.175568 365.925964,463.034515 
	C365.925964,463.034515 365.991913,463.007904 365.980927,462.735504 
	C365.622406,462.318939 365.274872,462.174774 364.927338,462.030640 
	C364.927338,462.030609 364.992340,462.007446 364.979889,461.735870 
	C364.620209,461.318481 364.272980,461.172668 363.925751,461.026825 
	C363.925751,461.026825 363.991302,461.007446 363.967590,460.742096 
	C363.603577,460.325592 363.263336,460.174469 362.923065,460.023346 
	C362.923065,460.023346 362.992157,460.013519 362.976990,459.674835 
	C361.953278,458.917297 360.944702,458.498444 359.936127,458.079590 
	C359.936127,458.079590 359.985229,458.004883 360.004333,457.724426 
	C359.656189,457.311493 359.288971,457.178955 358.921722,457.046448 
	C358.921722,457.046448 358.992615,457.008606 358.998566,456.725525 
	C358.643494,456.311371 358.282440,456.180298 357.921417,456.049194 
	C357.921417,456.049194 357.991241,456.006409 357.991150,455.730804 
	C357.635254,455.317200 357.279449,455.179169 356.923676,455.041138 
	C356.923676,455.041138 356.992004,455.008240 356.989807,454.730652 
	C356.633148,454.315369 356.278625,454.177704 355.924133,454.040070 
	C355.924133,454.040070 355.998627,454.013184 356.059265,453.714050 
	C355.591492,452.435089 355.063141,451.455322 354.658691,450.348877 
	C354.782623,450.222229 355.030396,449.968872 355.390167,449.987915 
	C357.346466,451.041290 359.084747,451.910858 360.513306,453.140320 
	C365.051666,457.046265 369.474579,461.086334 373.989136,465.413208 
	C377.008575,468.510376 379.980957,471.268860 383.069275,474.246094 
	C383.389954,474.737488 383.653351,474.929871 384.122437,475.338623 
	C387.162201,478.100006 390.054932,480.564697 392.967163,483.020874 
	C392.986664,483.012329 392.971375,483.052063 393.016479,483.366364 
	C393.694977,484.128571 394.328369,484.576447 395.257477,485.176331 
	C397.008728,486.589966 398.464264,487.851624 399.980469,489.420044 
	C400.673920,490.162231 401.306641,490.597687 401.959961,491.027435 
	C401.980499,491.021698 401.967773,491.062439 402.026398,491.398132 
	C403.029755,492.168823 403.974487,492.603790 404.937836,493.041840 
	C404.956451,493.044922 404.964783,493.081726 405.001343,493.418091 
	C406.340454,494.848785 407.643005,495.943085 408.969116,497.022797 
	C408.992676,497.008179 408.962463,497.054718 409.001221,497.393616 
	C410.341400,498.836731 411.642853,499.941010 413.058014,501.263062 
	C413.371674,501.752716 413.628784,501.950104 413.952942,502.429718 
	C414.000488,503.498932 414.038177,504.211456 414.018372,504.986267 
	C413.960846,505.048553 413.850006,505.176819 413.530151,505.048187 
	C411.452484,503.973694 409.694702,503.027802 407.936920,502.081909 
	C407.936920,502.081909 408.000000,502.009888 408.037720,501.715302 
	C407.692169,501.294800 407.308899,501.168884 406.925659,501.042999 
	C406.925659,501.042999 406.991486,501.004944 406.993591,500.772888 
	C406.701599,500.375336 406.407501,500.209869 406.113434,500.044434 
z"/>
<path fill="#309DE0" opacity="1.000000" stroke="none" 
	d="
M253.129257,126.941422 
	C254.275620,128.504852 255.421967,130.068298 256.817932,132.219696 
	C257.750671,135.158600 258.325348,137.548019 259.142426,139.851440 
	C260.365662,143.299744 261.759247,146.687592 263.080383,150.101166 
	C264.701416,157.830902 266.598602,165.515411 267.874115,173.301758 
	C269.497040,183.209122 270.616547,193.198959 271.667908,203.812744 
	C271.568634,205.642639 271.754578,206.813004 271.960022,208.299774 
	C272.288818,209.136276 272.598114,209.656403 272.907440,210.176514 
	C272.907440,210.176514 273.050659,210.383606 272.865845,210.946198 
	C272.569244,213.325195 272.457489,215.141602 272.115234,216.969467 
	C271.569611,216.995422 271.254425,217.007462 270.662811,216.752319 
	C268.931610,204.379852 267.693756,192.241058 265.968689,180.171906 
	C263.629791,163.808228 260.714661,147.554153 254.157806,132.201553 
	C253.471603,130.594833 253.455994,128.701675 253.129257,126.941422 
z"/>
<path fill="#309DE0" opacity="1.000000" stroke="none" 
	d="
M136.448410,506.918152 
	C134.302521,507.264343 132.428925,507.497986 129.001587,507.925385 
	C134.509369,498.616669 139.395599,490.358459 144.637207,482.427124 
	C143.770157,485.196503 142.304581,487.553314 141.404297,490.109192 
	C140.717667,492.058472 140.747696,494.260193 140.458893,496.349609 
	C141.029358,496.490570 141.599823,496.631531 142.170288,496.772491 
	C148.649689,489.819611 155.071609,482.811279 161.668777,475.971985 
	C162.690506,474.912750 164.514786,474.627625 165.829437,474.295532 
	C164.469009,476.771393 163.247070,478.936218 162.025146,481.101044 
	C161.567627,481.679810 161.110123,482.258606 160.019257,482.983521 
	C159.226440,483.879669 159.066956,484.629669 158.907486,485.379669 
	C158.907486,485.379669 158.763062,485.693237 158.321686,485.614319 
	C157.619644,486.060516 157.358963,486.585632 157.098297,487.110718 
	C157.098297,487.110718 157.020050,487.059723 156.811035,487.166077 
	C156.422699,487.586609 156.243378,487.900848 156.064041,488.215088 
	C155.291092,489.082458 154.518127,489.949829 153.213867,491.021576 
	C152.474777,491.519989 152.266983,491.814056 152.059189,492.108093 
	C152.059189,492.108093 152.091797,492.026459 151.717346,492.030212 
	C148.184525,492.261688 146.845230,494.016235 147.090210,497.100555 
	C147.090210,497.100555 147.007736,497.000549 146.724792,497.046387 
	C146.226990,497.551880 146.012115,498.011536 145.797241,498.471161 
	C145.797256,498.471161 145.652039,498.712097 145.215546,498.547363 
	C142.867310,500.310730 140.955582,502.238800 139.043854,504.166870 
	C138.269455,505.046448 137.495087,505.926025 136.448410,506.918152 
z"/>
<path fill="#4A4A4A" opacity="1.000000" stroke="none" 
	d="
M123.100281,201.499359 
	C123.787018,202.829910 124.344269,204.477478 125.096474,206.701447 
	C126.273827,205.466797 127.603455,204.072464 128.967682,202.340485 
	C131.697281,208.160538 134.603256,214.243195 136.850754,220.560104 
	C137.173141,221.466171 134.550293,223.994598 132.833572,224.808533 
	C131.979462,225.213486 129.296646,223.766739 128.802475,222.587234 
	C126.324516,216.672791 124.241867,210.588318 122.183151,204.508453 
	C121.937553,203.783157 122.684113,202.721909 123.100281,201.499359 
z"/>
<path fill="#3DA27B" opacity="1.000000" stroke="none" 
	d="
M351.575073,213.921402 
	C347.072693,215.576904 342.176331,217.326828 337.223785,218.899948 
	C335.040985,219.593292 332.744080,219.927368 329.914886,220.711075 
	C328.900574,221.022186 328.470337,221.046783 327.740784,221.066895 
	C326.955078,221.355957 326.468658,221.649521 325.656677,221.958923 
	C324.897217,221.998657 324.463318,222.022568 323.689209,222.035156 
	C322.563629,222.348862 321.778259,222.673920 320.667694,223.008270 
	C319.909363,223.039139 319.476166,223.060730 318.654358,223.104187 
	C312.840881,224.743530 307.416046,226.361038 301.664551,227.985382 
	C300.902649,228.007950 300.467377,228.023666 299.645569,228.064514 
	C297.986481,228.411835 296.729645,228.832993 295.438507,229.038651 
	C290.529602,229.820526 288.137421,232.424637 288.956451,237.567810 
	C289.136230,238.696609 289.016022,239.873199 289.024841,241.493500 
	C288.997467,247.298294 288.979187,252.637375 288.657715,257.983093 
	C287.951172,258.012512 287.547821,258.035248 287.081696,257.589478 
	C287.066895,247.766922 287.114899,238.412918 287.162872,229.058899 
	C291.606415,228.113892 296.073090,227.265457 300.489380,226.206772 
	C317.387756,222.155807 334.269989,218.037247 351.575073,213.921402 
z"/>
<path fill="#BAE6F1" opacity="1.000000" stroke="none" 
	d="
M236.652557,89.135361 
	C238.522202,110.515404 240.923981,131.867493 242.049210,153.286636 
	C242.661972,164.950760 241.108063,176.728699 240.248108,188.749695 
	C240.083923,183.481094 240.305664,177.918015 240.300659,172.355133 
	C240.290176,160.691696 240.259109,149.026474 240.033676,137.365891 
	C239.935822,132.305420 239.514999,127.233879 238.928345,122.203812 
	C237.747391,112.078270 236.346664,101.978409 235.058075,91.865219 
	C234.974976,91.213051 235.074768,90.537590 235.396225,89.475456 
	C236.019821,89.091682 236.336349,89.110817 236.652557,89.135361 
z"/>
<path fill="#3DA27B" opacity="1.000000" stroke="none" 
	d="
M348.114655,447.011688 
	C345.690796,444.840210 343.203003,442.735474 340.854675,440.485168 
	C332.947021,432.907593 325.089050,425.278198 317.103119,417.335754 
	C316.994202,417.002899 317.057465,416.942352 317.418243,416.962982 
	C321.502869,419.654816 325.226746,422.326019 329.230560,425.139709 
	C330.334320,426.202209 331.158112,427.122223 332.124939,428.331116 
	C333.835632,430.082886 335.403290,431.545807 337.294495,433.024963 
	C338.049866,433.055328 338.481598,433.069458 338.973175,433.432007 
	C340.339630,434.541473 341.646240,435.302551 343.057861,436.279724 
	C343.351593,436.767975 343.600525,436.963501 343.962158,437.420227 
	C346.989441,440.529053 349.964172,443.300018 353.094910,446.355194 
	C353.844055,447.749237 354.437225,448.859039 355.030396,449.968872 
	C355.030396,449.968872 354.782623,450.222229 354.366577,450.197083 
	C352.938507,449.793488 351.926483,449.415070 350.914459,449.036682 
	C350.914459,449.036682 350.981110,449.010803 350.928345,448.717285 
	C349.955292,447.953094 349.034973,447.482391 348.114655,447.011688 
z"/>
<path fill="#3DA27B" opacity="1.000000" stroke="none" 
	d="
M452.947876,537.070129 
	C456.289978,540.576355 459.632111,544.082581 462.974213,547.588806 
	C463.451660,547.251526 463.929077,546.914246 464.406494,546.576965 
	C464.271637,545.256592 464.136780,543.936157 464.061432,542.250061 
	C466.653992,546.049438 469.187042,550.214478 471.843079,555.075317 
	C469.630829,559.127747 468.492279,555.758362 467.153625,554.777527 
	C463.332397,551.977722 459.660187,548.974426 455.929382,546.051147 
	C455.929382,546.051147 455.992645,546.009216 456.027222,545.718628 
	C455.680664,545.292847 455.299530,545.157593 454.918396,545.022278 
	C454.918396,545.022278 454.988556,545.010742 455.075897,544.698730 
	C453.045746,542.008423 450.928223,539.630066 449.200439,537.169922 
	C450.382111,537.066895 451.174011,537.045654 452.211548,537.033386 
	C452.457123,537.042358 452.947876,537.070129 452.947876,537.070129 
z"/>
<path fill="#BAE6F1" opacity="1.000000" stroke="none" 
	d="
M456.051636,546.382507 
	C459.660187,548.974426 463.332397,551.977722 467.153625,554.777527 
	C468.492279,555.758362 469.630829,559.127747 471.986389,555.401001 
	C475.710449,555.557678 478.920959,560.230469 478.570740,565.984619 
	C469.262695,561.071289 463.102142,553.412903 456.051636,546.382507 
z"/>
<path fill="#3DA27B" opacity="1.000000" stroke="none" 
	d="
M460.040375,187.472351 
	C455.793243,188.903244 451.613007,190.591522 447.286133,191.715408 
	C435.608582,194.748596 423.872559,197.557816 412.148193,200.408417 
	C410.718170,200.756134 409.217651,200.813934 407.332672,200.780487 
	C406.915558,200.554886 406.910065,200.167160 406.910065,200.167160 
	C423.503815,195.984024 440.097565,191.800903 457.270447,187.356384 
	C458.579834,187.220795 459.310089,187.346573 460.040375,187.472351 
z"/>
<path fill="#3DA27B" opacity="1.000000" stroke="none" 
	d="
M218.026138,432.326721 
	C218.277893,434.284271 218.376892,436.520813 218.755966,438.889343 
	C215.404205,443.495422 211.772385,447.969452 207.674469,452.926727 
	C206.189743,454.698608 205.171112,455.987274 203.967102,456.647644 
	C203.638550,455.609772 203.495346,455.200165 203.538574,454.482788 
	C204.708206,452.684357 205.763611,451.235718 206.660797,449.694977 
	C209.126862,445.459961 211.526535,441.186279 213.952469,436.927917 
	C213.952469,436.927917 213.991028,436.996338 214.290802,437.090759 
	C215.037094,436.480957 215.483612,435.776764 215.930145,435.072571 
	C216.577896,434.250305 217.225632,433.428009 218.026138,432.326721 
z"/>
<path fill="#BAE6F1" opacity="1.000000" stroke="none" 
	d="
M117.900551,263.784546 
	C101.792290,262.709808 85.684036,261.635040 69.419296,260.037659 
	C69.840042,259.054169 70.417282,258.593323 70.994522,258.132507 
	C71.159637,258.080933 71.324753,258.029358 71.989464,258.326111 
	C73.714561,258.768585 74.940063,258.862701 76.165565,258.956787 
	C84.366714,259.949890 92.548981,261.168091 100.775558,261.857941 
	C106.377579,262.327728 112.041595,262.058258 117.826485,262.726532 
	C117.975082,263.333740 117.900551,263.784546 117.900551,263.784546 
z"/>
<path fill="#F5FDFD" opacity="1.000000" stroke="none" 
	d="
M36.171505,255.475128 
	C41.036125,251.356079 46.371006,253.157990 51.637234,254.270020 
	C55.814690,255.152145 59.979111,256.095978 64.293900,257.348694 
	C62.646427,257.650879 60.851154,257.534424 59.063179,257.604370 
	C57.031925,257.683838 55.007195,257.929962 52.547424,258.079803 
	C48.780041,257.781189 45.444862,257.506378 41.779579,257.040894 
	C40.016342,256.617096 38.583218,256.383942 36.912262,255.972000 
	C36.506786,255.687180 36.339146,255.581161 36.171505,255.475128 
z"/>
<path fill="#3DA27B" opacity="1.000000" stroke="none" 
	d="
M421.514252,513.996765 
	C421.514252,513.996765 421.389709,514.076721 421.282837,513.694214 
	C420.760071,513.231323 420.344116,513.150879 419.928192,513.070435 
	C419.928192,513.070435 419.998718,512.999512 420.023682,512.710632 
	C419.673737,512.299866 419.298828,512.177917 418.923920,512.056030 
	C418.923920,512.056030 419.003998,512.010559 419.099579,511.703247 
	C417.413452,509.322906 415.631714,507.249878 413.850006,505.176819 
	C413.850006,505.176819 413.960846,505.048553 414.376770,505.015991 
	C415.514191,504.999298 416.235718,505.015167 417.201599,505.047791 
	C417.446014,505.064545 417.935699,505.080475 417.975769,505.393494 
	C418.668182,506.470551 419.320496,507.234650 420.216370,508.018799 
	C420.459869,508.038910 420.947784,508.066345 420.995911,508.408081 
	C423.003906,510.180878 424.963776,511.611969 426.946747,513.036743 
	C426.969849,513.030457 426.956696,513.076538 426.996521,513.415649 
	C428.235229,515.230469 429.505615,516.654663 430.615204,518.194824 
	C432.040009,520.172546 433.335602,522.243408 434.327179,524.234009 
	C433.287811,524.146973 432.608124,524.099915 431.928467,524.052856 
	C431.928467,524.052856 431.995270,524.004944 432.008179,523.726929 
	C431.654266,523.304321 431.287476,523.159790 430.920654,523.015198 
	C430.920654,523.015198 430.994598,523.005432 430.989319,522.727417 
	C430.628998,522.306396 430.273987,522.163269 429.918976,522.020142 
	C429.918976,522.020142 429.993561,522.006409 430.003357,521.726929 
	C429.649109,521.301819 429.285095,521.156067 428.921082,521.010376 
	C428.921082,521.010376 428.996918,521.011475 429.038177,520.687988 
	C426.557709,518.241943 424.035980,516.119385 421.514252,513.996765 
z"/>
<path fill="#93D0BB" opacity="1.000000" stroke="none" 
	d="
M42.109688,257.231598 
	C45.444862,257.506378 48.780041,257.781189 52.833107,258.319336 
	C55.982155,259.026489 58.413303,259.470215 60.844456,259.913971 
	C60.749710,260.738129 60.654968,261.562286 60.107040,262.762512 
	C56.687199,262.776184 53.720543,262.413727 50.753891,262.051270 
	C50.359550,262.059174 49.965214,262.067017 49.275307,261.685913 
	C48.290127,261.230438 47.600517,261.163940 46.910908,261.097412 
	C46.174656,261.078308 45.438404,261.059235 44.245430,260.689087 
	C43.210018,259.857910 42.631329,259.377777 42.052719,258.619751 
	C42.071762,257.971741 42.090725,257.601685 42.109688,257.231598 
z"/>
<path fill="#BAE6F1" opacity="1.000000" stroke="none" 
	d="
M213.630371,437.042175 
	C211.526535,441.186279 209.126862,445.459961 206.660797,449.694977 
	C205.763611,451.235718 204.708206,452.684357 203.282745,454.612671 
	C201.587601,456.368073 200.334702,457.685822 199.066650,458.635834 
	C199.025330,457.778015 198.999115,457.287933 198.972900,456.797852 
	C203.751358,450.250702 208.529816,443.703552 213.630371,437.042175 
z"/>
<path fill="#93D0BB" opacity="1.000000" stroke="none" 
	d="
M108.594315,177.027374 
	C107.380325,178.799362 105.795380,180.604095 103.586243,183.119598 
	C107.529579,183.314926 110.811607,183.130096 113.922981,183.772202 
	C115.579872,184.114136 116.941505,185.886780 118.618217,187.295380 
	C113.484398,183.450363 107.165398,185.669144 100.737251,184.848724 
	C101.900658,180.694000 104.114937,178.035507 108.594315,177.027374 
z"/>
<path fill="#BAE6F1" opacity="1.000000" stroke="none" 
	d="
M173.874817,364.044220 
	C173.547394,374.558289 173.238083,385.072998 172.852402,395.584930 
	C172.826248,396.297729 172.225708,396.989471 171.546997,397.790894 
	C171.814316,386.912415 172.426941,375.934052 173.284058,364.497681 
	C173.528534,364.039734 173.874817,364.044220 173.874817,364.044220 
z"/>
<path fill="#19A26C" opacity="1.000000" stroke="none" 
	d="
M429.412842,225.048950 
	C428.687164,225.050232 428.186249,225.017899 427.371185,224.621246 
	C430.267334,218.544266 434.531555,214.025513 440.972382,211.972260 
	C440.972382,211.972260 441.193542,212.195236 441.148346,212.595367 
	C438.743011,215.687698 436.382904,218.379913 434.022766,221.072113 
	C434.022766,221.072113 434.002594,221.004837 433.727234,221.009781 
	C433.307526,221.367142 433.163147,221.719559 433.018768,222.071976 
	C433.018768,222.071976 433.003845,222.003403 432.731567,222.018356 
	C432.313965,222.379898 432.168640,222.726471 432.023285,223.073059 
	C432.023285,223.073059 432.008514,222.999756 431.773407,222.908325 
	C431.046112,223.495361 430.553925,224.173843 430.061737,224.852341 
	C430.061737,224.852341 429.637573,225.015350 429.412842,225.048950 
z"/>
<path fill="#3DA27B" opacity="1.000000" stroke="none" 
	d="
M276.105957,379.384766 
	C276.436066,378.737030 276.905701,378.405182 277.919678,378.058472 
	C278.463989,378.043579 278.950134,378.070679 278.985748,378.384705 
	C279.672272,379.463928 280.323212,380.229156 281.218048,381.154999 
	C281.967743,381.896790 282.473511,382.477905 283.129822,383.351746 
	C285.166351,385.106018 287.052399,386.567596 288.950348,388.032104 
	C288.962280,388.035034 288.966125,388.064667 288.996643,388.389618 
	C289.213074,389.554932 289.398987,390.395325 289.584900,391.235687 
	C288.215637,390.864838 286.419067,390.918701 285.553101,390.047546 
	C282.286591,386.761566 279.322662,383.174805 276.105957,379.384766 
z"/>
<path fill="#BAE6F1" opacity="1.000000" stroke="none" 
	d="
M196.092834,469.086121 
	C192.986847,472.675079 189.880844,476.264038 186.315948,479.661011 
	C186.164368,478.213013 186.327393,476.898254 186.809677,475.713440 
	C187.754913,473.391235 188.878067,471.141479 189.927597,468.861725 
	C189.927597,468.861725 189.938171,468.945129 190.234283,468.982422 
	C191.210388,469.008026 191.890396,468.996277 193.002518,469.012604 
	C194.284088,469.019440 195.133530,468.998199 196.009125,469.005615 
	C196.035263,469.034210 196.092819,469.086121 196.092834,469.086121 
z"/>
<path fill="#8FD2F3" opacity="1.000000" stroke="none" 
	d="
M263.432983,149.922714 
	C261.759247,146.687592 260.365662,143.299744 259.142426,139.851440 
	C258.325348,137.548019 257.750671,135.158600 257.096680,132.420074 
	C257.295837,132.020798 257.465820,132.009079 257.887146,131.950958 
	C260.020844,137.851120 261.903229,143.797684 263.432983,149.922714 
z"/>
<path fill="#BAE6F1" opacity="1.000000" stroke="none" 
	d="
M460.385498,187.320847 
	C459.310089,187.346573 458.579834,187.220795 457.484558,187.025833 
	C461.759155,185.293457 466.353210,183.475891 471.072876,182.084259 
	C472.145813,181.767899 473.653748,182.926941 474.961456,183.406876 
	C474.202148,184.275635 473.442871,185.144394 472.127136,185.720581 
	C468.703583,185.938293 465.836517,186.448563 462.969452,186.958862 
	C462.223175,187.029022 461.476868,187.099182 460.385498,187.320847 
z"/>
<path fill="#93D0BB" opacity="1.000000" stroke="none" 
	d="
M236.838730,88.830467 
	C236.336349,89.110817 236.019821,89.091682 235.465012,89.049149 
	C235.227051,89.020340 235.035889,88.580826 235.024139,87.897324 
	C234.652679,84.479782 234.292969,81.745758 233.928314,78.624481 
	C233.872528,77.464958 233.821671,76.692673 234.114441,76.037239 
	C235.914124,77.764557 237.370178,79.375031 238.826218,80.985504 
	C239.462006,82.402580 240.097778,83.819656 240.800079,85.567879 
	C239.586044,86.774544 238.305466,87.650063 236.838730,88.830467 
z"/>
<path fill="#3DA27B" opacity="1.000000" stroke="none" 
	d="
M304.921631,406.088318 
	C301.011871,402.602509 297.102081,399.116730 293.404175,395.349426 
	C296.048676,396.063965 298.481323,397.060059 300.933777,398.301727 
	C300.953613,398.547302 300.979675,399.040436 301.015747,399.381470 
	C302.387115,401.795685 303.722443,403.868866 305.023560,405.978455 
	C304.989319,406.014832 304.921631,406.088318 304.921631,406.088318 
z"/>
<path fill="#BAE6F1" opacity="1.000000" stroke="none" 
	d="
M272.345734,216.958023 
	C272.457489,215.141602 272.569244,213.325195 272.813629,211.060760 
	C273.309937,211.446716 273.988800,212.280472 273.989410,213.114716 
	C273.996979,223.653717 273.906799,234.192780 273.238281,244.848526 
	C272.635040,244.965225 272.165100,244.924606 272.165100,244.924606 
	C272.166779,243.879562 272.168457,242.834534 272.383118,241.064606 
	C272.591125,236.555237 272.586182,232.770782 272.679504,228.557648 
	C272.685547,226.089203 272.593353,224.049408 272.613007,221.596893 
	C272.598480,219.775452 272.472107,218.366730 272.345734,216.958023 
z"/>
<path fill="#93D0BB" opacity="1.000000" stroke="none" 
	d="
M286.714050,229.145462 
	C287.114899,238.412918 287.066895,247.766922 287.024658,257.948883 
	C286.997192,259.504059 286.963959,260.231293 286.930756,260.958527 
	C286.537415,260.962372 286.144073,260.966248 285.456360,260.949707 
	C285.529694,250.363510 285.897430,239.797775 286.714050,229.145462 
z"/>
<path fill="#BAE6F1" opacity="1.000000" stroke="none" 
	d="
M50.942150,262.394653 
	C53.720543,262.413727 56.687199,262.776184 60.014557,263.166992 
	C63.450310,264.559113 66.525352,265.922882 69.800354,267.569305 
	C63.710335,266.147339 57.420372,264.442688 50.942150,262.394653 
z"/>
<path fill="#8FD2F3" opacity="1.000000" stroke="none" 
	d="
M211.313965,208.071533 
	C211.251678,201.717041 211.553131,195.178604 211.893158,188.144470 
	C215.960449,191.442566 213.584122,196.268188 213.776001,200.594681 
	C213.882217,202.989914 212.428360,205.454346 211.313965,208.071533 
z"/>
<path fill="#23A571" opacity="1.000000" stroke="none" 
	d="
M300.913971,398.056152 
	C298.481323,397.060059 296.048676,396.063965 293.250824,395.041412 
	C292.318237,394.557068 291.750854,394.099152 291.062195,393.054810 
	C290.519897,392.051636 290.098846,391.634888 289.677795,391.218109 
	C289.677795,391.218109 289.631348,391.229675 289.608124,391.232666 
	C289.398987,390.395325 289.213074,389.554932 289.345886,388.400543 
	C293.414398,391.409729 297.164185,394.732941 300.913971,398.056152 
z"/>
<path fill="#BAE6F1" opacity="1.000000" stroke="none" 
	d="
M128.592133,502.030975 
	C126.205757,506.877960 123.479980,511.823395 120.132950,516.879517 
	C119.302849,516.971252 119.094002,516.952332 118.885155,516.933350 
	C118.885155,516.933350 118.963493,516.461121 119.264740,516.106079 
	C119.697868,515.442078 119.829758,515.133179 119.961655,514.824280 
	C122.725349,510.592682 125.489044,506.361053 128.592133,502.030975 
z"/>
<path fill="#8FD2F3" opacity="1.000000" stroke="none" 
	d="
M118.370064,263.884399 
	C117.900551,263.784546 117.975082,263.333740 118.038422,263.114624 
	C129.279968,262.995361 140.458191,263.095184 151.851532,263.576538 
	C140.990952,263.966736 129.915268,263.975464 118.370064,263.884399 
z"/>
<path fill="#93D0BB" opacity="1.000000" stroke="none" 
	d="
M231.360809,138.936249 
	C229.858643,138.337021 228.757217,137.063843 227.553055,136.957840 
	C222.307846,136.496170 217.032761,136.374039 211.362137,136.052368 
	C213.619019,135.644272 216.303497,134.923340 218.940826,135.067184 
	C223.447800,135.312958 227.925201,136.100723 232.707199,136.697296 
	C232.464676,137.210754 232.089462,138.005112 231.360809,138.936249 
z"/>
<path fill="#F5FDFD" opacity="1.000000" stroke="none" 
	d="
M189.617569,469.001404 
	C188.878067,471.141479 187.754913,473.391235 186.809677,475.713440 
	C186.327393,476.898254 186.164368,478.213013 186.001541,479.772552 
	C183.160461,480.567108 181.842270,479.623627 183.023712,477.422668 
	C184.642578,474.406769 187.169693,471.878418 189.617569,469.001404 
z"/>
<path fill="#F5FDFD" opacity="1.000000" stroke="none" 
	d="
M192.570389,468.984558 
	C191.890396,468.996277 191.210388,469.008026 190.193039,468.974274 
	C192.061417,465.905151 194.273376,462.886017 196.468979,459.855011 
	C197.109695,458.970551 197.703690,458.052216 198.645996,456.973633 
	C198.999115,457.287933 199.025330,457.778015 198.958740,458.969330 
	C196.767441,462.775238 194.668915,465.879883 192.570389,468.984558 
z"/>
<path fill="#3DA27B" opacity="1.000000" stroke="none" 
	d="
M316.962219,417.032776 
	C313.025391,413.605347 309.120575,410.148041 305.068665,406.389526 
	C304.921631,406.088318 304.989319,406.014832 305.361816,406.025146 
	C306.815155,406.361115 307.895966,406.686707 308.986328,407.006836 
	C308.995850,407.001343 308.993866,407.022461 309.139771,407.322632 
	C311.876282,410.729340 314.466888,413.835846 317.057465,416.942352 
	C317.057465,416.942352 316.994202,417.002899 316.962219,417.032776 
z"/>
<path fill="#F5FDFD" opacity="1.000000" stroke="none" 
	d="
M118.556129,517.085205 
	C119.094002,516.952332 119.302849,516.971252 119.824997,517.017578 
	C120.567986,517.640015 120.997681,518.235107 121.724709,518.859314 
	C121.815155,519.964844 121.970497,521.469849 121.319176,522.020264 
	C120.258743,522.916260 118.671150,523.188354 117.306046,523.723755 
	C117.155418,522.377747 116.805832,521.013733 116.925621,519.692200 
	C117.002739,518.841492 117.769463,518.053223 118.556129,517.085205 
z"/>
<path fill="#93D0BB" opacity="1.000000" stroke="none" 
	d="
M406.482361,200.115051 
	C406.910065,200.167160 406.915558,200.554886 406.905762,200.748169 
	C400.513214,202.338989 394.130463,203.736526 387.337311,205.054535 
	C388.515747,204.205933 390.030579,203.102417 391.707458,202.731476 
	C396.454376,201.681381 401.267578,200.931244 406.482361,200.115051 
z"/>
<path fill="#3DA27B" opacity="1.000000" stroke="none" 
	d="
M463.176758,187.230438 
	C465.836517,186.448563 468.703583,185.938293 471.739838,185.763306 
	C470.157654,187.664352 468.406311,189.230103 466.320099,190.819977 
	C465.118195,189.730072 464.251129,188.616058 463.176758,187.230438 
z"/>
<path fill="#3DA27B" opacity="1.000000" stroke="none" 
	d="
M371.572876,208.925995 
	C365.593994,210.606857 359.189972,212.308685 352.349915,213.978882 
	C358.325134,212.280502 364.736420,210.613739 371.572876,208.925995 
z"/>
<path fill="#BAE6F1" opacity="1.000000" stroke="none" 
	d="
M61.293396,259.947632 
	C58.413303,259.470215 55.982155,259.026489 53.265316,258.343201 
	C55.007195,257.929962 57.031925,257.683838 59.063179,257.604370 
	C60.851154,257.534424 62.646427,257.650879 64.713394,257.408356 
	C65.153633,257.080353 65.318962,257.029022 65.841614,257.332825 
	C66.485893,258.418915 66.772835,259.149841 67.059784,259.880798 
	C65.287300,259.914307 63.514820,259.947815 61.293396,259.947632 
z"/>
<path fill="#93D0BB" opacity="1.000000" stroke="none" 
	d="
M413.530151,505.048187 
	C415.631714,507.249878 417.413452,509.322906 419.063538,511.734131 
	C415.320282,508.959839 411.708618,505.847351 408.016907,502.408386 
	C409.694702,503.027802 411.452484,503.973694 413.530151,505.048187 
z"/>
<path fill="#419ED2" opacity="1.000000" stroke="none" 
	d="
M162.334412,480.963684 
	C163.247070,478.936218 164.469009,476.771393 165.841644,474.298218 
	C165.992325,473.989838 165.995224,473.973358 166.217621,473.872406 
	C166.718048,473.571686 166.894501,473.304749 166.981964,472.733643 
	C166.994553,472.496704 167.038727,472.024200 167.038727,472.024200 
	C168.169785,471.705383 169.300842,471.386566 170.787506,471.052917 
	C168.309982,474.300842 165.476837,477.563568 162.334412,480.963684 
z"/>
<path fill="#BAE6F1" opacity="1.000000" stroke="none" 
	d="
M448.810699,537.251770 
	C450.928223,539.630066 453.045746,542.008423 455.062561,544.731689 
	C451.359619,541.952148 447.757416,538.827576 444.052277,535.375366 
	C443.949341,535.047791 443.970154,535.033508 444.307800,534.893677 
	C445.349915,534.920959 446.054321,535.088196 446.889679,535.164917 
	C447.020599,535.074463 446.749054,535.238159 446.812439,535.545044 
	C447.528656,536.300354 448.181488,536.748779 448.840363,537.214233 
	C448.846405,537.231201 448.810699,537.251770 448.810699,537.251770 
z"/>
<path fill="#F5FDFD" opacity="1.000000" stroke="none" 
	d="
M233.770828,75.920387 
	C233.821671,76.692673 233.872528,77.464958 233.680573,78.890068 
	C233.279877,80.757988 233.122025,81.973083 232.964172,83.188179 
	C232.000198,80.603218 230.630096,78.088272 230.169495,75.416534 
	C229.513214,71.609848 232.156738,71.691254 234.703384,72.693146 
	C234.306870,74.028763 234.038849,74.974571 233.770828,75.920387 
z"/>
<path fill="#BAE6F1" opacity="1.000000" stroke="none" 
	d="
M432.032593,524.373169 
	C432.608124,524.099915 433.287811,524.146973 434.351990,524.224487 
	C434.736511,524.255066 434.787231,524.249084 434.897827,524.562683 
	C437.328644,527.594543 439.648804,530.312744 441.968628,533.030701 
	C441.968292,533.030396 441.948761,533.050110 441.948761,533.050110 
	C438.678070,530.264587 435.407379,527.479065 432.032593,524.373169 
z"/>
<path fill="#93D0BB" opacity="1.000000" stroke="none" 
	d="
M434.373749,221.033722 
	C436.382904,218.379913 438.743011,215.687698 441.258850,212.706909 
	C442.348541,211.990555 443.282532,211.562775 444.529541,211.135696 
	C441.470001,214.422699 438.097351,217.709000 434.373749,221.033722 
z"/>
<path fill="#8FD2F3" opacity="1.000000" stroke="none" 
	d="
M89.042450,275.382721 
	C93.213623,276.831573 97.507942,278.618896 101.894539,280.746887 
	C97.713074,279.298798 93.439331,277.510010 89.042450,275.382721 
z"/>
<path fill="#3DA27B" opacity="1.000000" stroke="none" 
	d="
M386.531006,204.919159 
	C383.201172,206.289459 379.485260,207.705109 375.716095,208.960938 
	C374.833191,209.255096 373.770081,209.008286 372.352600,208.983276 
	C376.652069,207.606186 381.388763,206.256210 386.531006,204.919159 
z"/>
<path fill="#8FD2F3" opacity="1.000000" stroke="none" 
	d="
M113.306168,285.287354 
	C114.060074,286.076385 114.469337,286.779999 114.928688,287.788696 
	C111.369514,286.302338 107.760262,284.510834 104.030952,282.386230 
	C106.927765,283.102753 109.944641,284.152344 113.306168,285.287354 
z"/>
<path fill="#BAE6F1" opacity="1.000000" stroke="none" 
	d="
M234.114441,76.037239 
	C234.038849,74.974571 234.306870,74.028763 234.905426,73.039734 
	C236.495483,75.411018 237.755005,77.825523 238.920364,80.612762 
	C237.370178,79.375031 235.914124,77.764557 234.114441,76.037239 
z"/>
<path fill="#8FD2F3" opacity="1.000000" stroke="none" 
	d="
M173.930267,363.612244 
	C173.874817,364.044220 173.528534,364.039734 173.355408,364.036072 
	C172.451248,359.643707 171.720215,355.254974 170.958008,350.430054 
	C171.946487,354.389374 172.966110,358.784821 173.930267,363.612244 
z"/>
<path fill="#BAE6F1" opacity="1.000000" stroke="none" 
	d="
M160.764862,437.122864 
	C159.642120,441.365967 158.124634,445.580627 156.260803,449.895386 
	C157.399673,445.695129 158.884888,441.394775 160.764862,437.122864 
z"/>
<path fill="#93D0BB" opacity="1.000000" stroke="none" 
	d="
M421.716980,514.303650 
	C424.035980,516.119385 426.557709,518.241943 429.017883,520.720093 
	C426.610809,518.920593 424.265259,516.765564 421.716980,514.303650 
z"/>
<path fill="#8FD2F3" opacity="1.000000" stroke="none" 
	d="
M265.396149,296.957031 
	C265.802551,292.610901 266.582275,288.096039 267.595703,283.301239 
	C267.142731,287.610291 266.456116,292.199310 265.396149,296.957031 
z"/>
<path fill="#419ED2" opacity="1.000000" stroke="none" 
	d="
M139.406586,504.107605 
	C140.955582,502.238800 142.867310,500.310730 145.092316,498.615234 
	C143.526840,500.581329 141.648087,502.314850 139.406586,504.107605 
z"/>
<path fill="#BAE6F1" opacity="1.000000" stroke="none" 
	d="
M232.953918,83.551514 
	C233.122025,81.973083 233.279877,80.757988 233.685486,79.277313 
	C234.292969,81.745758 234.652679,84.479782 234.996399,87.659286 
	C234.301483,86.708122 233.622559,85.311485 232.953918,83.551514 
z"/>
<path fill="#93D0BB" opacity="1.000000" stroke="none" 
	d="
M350.938843,449.391357 
	C351.926483,449.415070 352.938507,449.793488 354.242645,450.323730 
	C355.063141,451.455322 355.591492,452.435089 356.033478,453.744080 
	C354.285797,452.630890 352.624481,451.188446 350.938843,449.391357 
z"/>
<path fill="#BAE6F1" opacity="1.000000" stroke="none" 
	d="
M204.152481,457.275909 
	C205.171112,455.987274 206.189743,454.698608 207.518158,453.252960 
	C206.811081,455.348236 205.794220,457.600525 204.417160,459.955322 
	C204.056961,460.057861 203.987930,459.991241 203.941681,459.712097 
	C203.981125,458.713928 204.066803,457.994904 204.152481,457.275909 
z"/>
<path fill="#419ED2" opacity="1.000000" stroke="none" 
	d="
M147.392868,496.977783 
	C146.845230,494.016235 148.184525,492.261688 151.724487,492.073578 
	C150.635895,493.693817 149.165710,495.274414 147.392868,496.977783 
z"/>
<path fill="#93D0BB" opacity="1.000000" stroke="none" 
	d="
M353.597351,376.934052 
	C353.211151,376.021729 353.069702,375.325409 352.979584,374.275818 
	C354.362701,375.701904 355.694489,377.481232 357.050995,379.618164 
	C355.997864,379.033875 354.920013,378.091949 353.597351,376.934052 
z"/>
<path fill="#8FD2F3" opacity="1.000000" stroke="none" 
	d="
M168.223816,343.345215 
	C169.152649,345.079407 170.133102,347.180237 171.034912,349.676514 
	C170.062668,347.951904 169.169052,345.831879 168.223816,343.345215 
z"/>
<path fill="#F5FDFD" opacity="1.000000" stroke="none" 
	d="
M42.052639,258.897644 
	C42.631329,259.377777 43.210018,259.857910 43.885933,260.607727 
	C41.737965,260.509430 39.492764,260.141449 37.111305,259.398376 
	C36.975056,259.023315 37.034786,258.965637 37.451836,258.942749 
	C39.263466,258.912476 40.658051,258.905060 42.052639,258.897644 
z"/>
<path fill="#F5FDFD" opacity="1.000000" stroke="none" 
	d="
M67.377792,259.939392 
	C66.772835,259.149841 66.485893,258.418915 66.090485,257.406921 
	C67.401237,257.420013 68.820442,257.714172 70.617081,258.070435 
	C70.417282,258.593323 69.840042,259.054169 69.125122,259.760590 
	C68.556885,260.003448 68.126343,260.000702 67.377792,259.939392 
z"/>
<path fill="#8FD2F3" opacity="1.000000" stroke="none" 
	d="
M209.097504,184.190140 
	C208.862167,183.659225 208.935730,183.222855 209.026291,182.455994 
	C209.454056,182.127182 209.864838,182.128845 210.582611,182.156952 
	C211.254013,183.617722 211.618408,185.052048 211.926956,186.883636 
	C211.049530,186.282135 210.227966,185.283401 209.097504,184.190140 
z"/>
<path fill="#419ED2" opacity="1.000000" stroke="none" 
	d="
M271.874481,245.134552 
	C272.165100,244.924606 272.635040,244.965225 272.847778,245.066254 
	C272.962585,246.354019 272.864685,247.540756 272.448456,248.898346 
	C271.948029,247.827621 271.765930,246.586044 271.874481,245.134552 
z"/>
<path fill="#8FD2F3" opacity="1.000000" stroke="none" 
	d="
M268.352966,282.004333 
	C268.156250,280.034271 268.329834,277.856354 268.749390,275.385864 
	C268.904633,277.327667 268.813934,279.562103 268.352966,282.004333 
z"/>
<path fill="#8FD2F3" opacity="1.000000" stroke="none" 
	d="
M83.843056,273.301819 
	C85.334030,273.437317 87.036385,273.897369 88.866180,274.721222 
	C87.347229,274.598816 85.700829,274.112610 83.843056,273.301819 
z"/>
<path fill="#419ED2" opacity="1.000000" stroke="none" 
	d="
M271.940552,207.983383 
	C271.754578,206.813004 271.568634,205.642639 271.614197,204.243744 
	C272.231537,205.120178 272.617371,206.225128 272.702423,207.668396 
	C272.401672,208.006729 271.940552,207.983383 271.940552,207.983383 
z"/>
<path fill="#93D0BB" opacity="1.000000" stroke="none" 
	d="
M360.005066,458.404297 
	C360.944702,458.498444 361.953278,458.917297 362.967773,459.708496 
	C362.007141,459.630188 361.040588,459.179596 360.005066,458.404297 
z"/>
<path fill="#BAE6F1" opacity="1.000000" stroke="none" 
	d="
M199.073730,465.068390 
	C198.626877,466.008820 198.180038,466.949249 197.390594,467.968994 
	C197.048004,468.048279 196.979889,467.985657 196.956238,467.638245 
	C197.615112,466.519318 198.297607,465.747772 199.002655,465.000122 
	C199.025208,465.024048 199.073746,465.068390 199.073730,465.068390 
z"/>
<path fill="#93D0BB" opacity="1.000000" stroke="none" 
	d="
M347.045105,364.636902 
	C346.342316,364.128357 345.606262,363.271332 344.926392,362.030914 
	C345.658966,362.527832 346.335419,363.408081 347.045105,364.636902 
z"/>
<path fill="#F5FDFD" opacity="1.000000" stroke="none" 
	d="
M36.945030,259.051941 
	C36.507076,258.010925 36.099148,256.941284 35.931362,255.673370 
	C36.339146,255.581161 36.506786,255.687180 36.883091,256.320007 
	C37.072765,257.553070 37.053776,258.259369 37.034786,258.965637 
	C37.034786,258.965637 36.975056,259.023315 36.945030,259.051941 
z"/>
<path fill="#8FD2F3" opacity="1.000000" stroke="none" 
	d="
M80.054306,271.337097 
	C80.947571,271.420471 81.994652,271.814209 83.122948,272.558929 
	C82.205482,272.489105 81.206802,272.068298 80.054306,271.337097 
z"/>
<path fill="#93D0BB" opacity="1.000000" stroke="none" 
	d="
M343.049805,358.649414 
	C342.371521,358.202454 341.657349,357.417389 340.985962,356.275879 
	C341.690491,356.716736 342.352203,357.514038 343.049805,358.649414 
z"/>
<path fill="#93D0BB" opacity="1.000000" stroke="none" 
	d="
M113.670792,172.346252 
	C113.145515,173.038483 112.370872,173.870438 111.326134,174.833069 
	C111.844498,174.137833 112.632957,173.311905 113.670792,172.346252 
z"/>
<path fill="#93D0BB" opacity="1.000000" stroke="none" 
	d="
M359.061157,382.646332 
	C358.359406,382.205139 357.623230,381.426056 356.961121,380.287994 
	C357.699036,380.722168 358.362885,381.515320 359.061157,382.646332 
z"/>
<path fill="#419ED2" opacity="1.000000" stroke="none" 
	d="
M174.323944,468.039734 
	C174.543961,467.388672 175.045410,466.614655 175.836914,465.940002 
	C175.619766,466.665192 175.112564,467.290985 174.323944,468.039734 
z"/>
<path fill="#93D0BB" opacity="1.000000" stroke="none" 
	d="
M366.940948,464.403748 
	C367.568451,464.426147 368.210876,464.801849 368.884277,465.503418 
	C368.262146,465.471832 367.609009,465.114410 366.940948,464.403748 
z"/>
<path fill="#93D0BB" opacity="1.000000" stroke="none" 
	d="
M348.144531,447.342621 
	C349.034973,447.482391 349.955292,447.953094 350.930298,448.752991 
	C350.048126,448.612640 349.111267,448.143097 348.144531,447.342621 
z"/>
<path fill="#BAE6F1" opacity="1.000000" stroke="none" 
	d="
M443.941223,535.057861 
	C443.281403,534.635742 442.629700,534.203552 441.963379,533.410767 
	C441.948761,533.050110 441.968292,533.030396 442.321289,532.959534 
	C443.106262,533.603638 443.538208,534.318542 443.970154,535.033508 
	C443.970154,535.033508 443.949341,535.047791 443.941223,535.057861 
z"/>
<path fill="#F5FDFD" opacity="1.000000" stroke="none" 
	d="
M75.985146,258.615448 
	C74.940063,258.862701 73.714561,258.768585 72.238174,258.400085 
	C73.259773,258.175171 74.532249,258.224640 75.985146,258.615448 
z"/>
<path fill="#93D0BB" opacity="1.000000" stroke="none" 
	d="
M430.349487,224.813690 
	C430.553925,224.173843 431.046112,223.495361 431.801422,222.933105 
	C431.588776,223.624573 431.113007,224.199799 430.349487,224.813690 
z"/>
<path fill="#419ED2" opacity="1.000000" stroke="none" 
	d="
M159.152527,485.238800 
	C159.066956,484.629669 159.226440,483.879669 159.754456,483.081299 
	C159.881195,483.721252 159.639389,484.409607 159.152527,485.238800 
z"/>
<path fill="#BAE6F1" opacity="1.000000" stroke="none" 
	d="
M47.041500,261.387390 
	C47.600517,261.163940 48.290127,261.230438 48.992973,261.596619 
	C48.394836,261.823334 47.783463,261.750366 47.041500,261.387390 
z"/>
<path fill="#BAE6F1" opacity="1.000000" stroke="none" 
	d="
M215.571503,435.038879 
	C215.483612,435.776764 215.037094,436.480957 214.256897,437.070984 
	C214.353088,436.306274 214.782974,435.655762 215.571503,435.038879 
z"/>
<path fill="#8FD2F3" opacity="1.000000" stroke="none" 
	d="
M114.998383,288.337524 
	C115.594460,288.425354 116.277473,288.805328 117.009293,289.513794 
	C116.400505,289.438110 115.742912,289.033905 114.998383,288.337524 
z"/>
<path fill="#93D0BB" opacity="1.000000" stroke="none" 
	d="
M339.316345,307.990753 
	C339.055847,307.649567 339.084930,307.222443 339.488098,306.433533 
	C340.249054,306.054474 340.635895,306.037140 341.015808,306.013489 
	C341.008881,306.007172 341.012756,306.012268 341.012756,306.012268 
	C340.543823,306.643097 340.074890,307.273956 339.316345,307.990753 
z"/>
<path fill="#3DA27B" opacity="1.000000" stroke="none" 
	d="
M462.947266,539.742554 
	C462.325134,539.546082 461.700470,539.033508 461.067444,538.184082 
	C461.687622,538.373657 462.316223,538.900024 462.947266,539.742554 
z"/>
<path fill="#93D0BB" opacity="1.000000" stroke="none" 
	d="
M343.297913,304.961609 
	C343.480225,304.392731 343.937958,303.702637 344.744263,303.017090 
	C344.586304,303.627899 344.079803,304.234161 343.297913,304.961609 
z"/>
<path fill="#93D0BB" opacity="1.000000" stroke="none" 
	d="
M451.283112,204.904846 
	C451.489563,204.453949 451.934662,203.859253 452.661316,203.176849 
	C452.469177,203.646423 451.995483,204.203720 451.283112,204.904846 
z"/>
<path fill="#93D0BB" opacity="1.000000" stroke="none" 
	d="
M345.288971,302.959198 
	C345.475952,302.392456 345.934265,301.694763 346.741608,301.009674 
	C346.580536,301.624268 346.070435,302.226257 345.288971,302.959198 
z"/>
<path fill="#93D0BB" opacity="1.000000" stroke="none" 
	d="
M333.399109,313.755981 
	C333.564819,313.185425 334.007294,312.560150 334.762573,311.985107 
	C334.608917,312.590637 334.142426,313.145966 333.399109,313.755981 
z"/>
<path fill="#93D0BB" opacity="1.000000" stroke="none" 
	d="
M448.499176,207.624695 
	C448.389374,207.290985 448.555298,206.817368 448.900818,206.158173 
	C448.978607,206.476669 448.876770,206.980713 448.499176,207.624695 
z"/>
<path fill="#8FD2F3" opacity="1.000000" stroke="none" 
	d="
M271.960022,208.299774 
	C271.940552,207.983383 272.401672,208.006729 272.631470,208.029327 
	C272.904938,208.521942 272.948639,208.991943 272.949890,209.819229 
	C272.598114,209.656403 272.288818,209.136276 271.960022,208.299774 
z"/>
<path fill="#93D0BB" opacity="1.000000" stroke="none" 
	d="
M449.269745,206.279449 
	C449.471375,205.772537 449.967010,205.465790 450.754272,205.103027 
	C450.551849,205.524536 450.057800,206.002075 449.269745,206.279449 
z"/>
<path fill="#419ED2" opacity="1.000000" stroke="none" 
	d="
M157.331863,487.039001 
	C157.358963,486.585632 157.619644,486.060516 158.167603,485.692139 
	C158.158432,486.221680 157.861938,486.594482 157.331863,487.039001 
z"/>
<path fill="#93D0BB" opacity="1.000000" stroke="none" 
	d="
M340.889374,304.950439 
	C341.379547,304.935760 341.869690,304.921082 342.722290,304.970886 
	C342.607330,305.354218 342.130005,305.673126 341.332703,306.002136 
	C341.012756,306.012268 341.008881,306.007172 340.948517,305.750366 
	C340.888550,305.312500 340.888977,305.131470 340.889374,304.950439 
z"/>
<path fill="#419ED2" opacity="1.000000" stroke="none" 
	d="
M146.012543,498.351562 
	C146.012115,498.011536 146.226990,497.551880 146.773300,497.089539 
	C146.812454,497.468536 146.520157,497.850220 146.012543,498.351562 
z"/>
<path fill="#93D0BB" opacity="1.000000" stroke="none" 
	d="
M349.035767,367.677979 
	C348.667969,367.530579 348.263489,367.058258 347.950989,366.260315 
	C348.361694,366.407471 348.680389,366.880280 349.035767,367.677979 
z"/>
<path fill="#8FD2F3" opacity="1.000000" stroke="none" 
	d="
M102.024673,281.354736 
	C102.532799,281.187408 103.147423,281.326965 103.876556,281.777527 
	C103.371101,281.946228 102.751129,281.803925 102.024673,281.354736 
z"/>
<path fill="#93D0BB" opacity="1.000000" stroke="none" 
	d="
M228.341080,141.104309 
	C228.471130,140.656067 228.926880,140.159546 229.725922,139.842499 
	C229.601715,140.366653 229.134262,140.711334 228.341080,141.104309 
z"/>
<path fill="#93D0BB" opacity="1.000000" stroke="none" 
	d="
M344.149994,360.714844 
	C343.858093,360.543915 343.423706,360.071533 343.006226,359.258911 
	C343.351227,359.416901 343.679352,359.915161 344.149994,360.714844 
z"/>
<path fill="#3DA27B" opacity="1.000000" stroke="none" 
	d="
M289.650177,391.532837 
	C290.098846,391.634888 290.519897,392.051636 290.957458,392.796509 
	C290.523468,392.698944 290.073029,392.273254 289.650177,391.532837 
z"/>
<path fill="#BAE6F1" opacity="1.000000" stroke="none" 
	d="
M155.647415,450.022980 
	C155.832840,450.559021 155.710342,451.201538 155.249481,451.919891 
	C155.053894,451.373657 155.196701,450.751526 155.647415,450.022980 
z"/>
<path fill="#93D0BB" opacity="1.000000" stroke="none" 
	d="
M422.492920,231.644745 
	C422.374359,231.296631 422.543213,230.817719 422.900085,230.157928 
	C422.985535,230.489334 422.882935,231.001617 422.492920,231.644745 
z"/>
<path fill="#93D0BB" opacity="1.000000" stroke="none" 
	d="
M423.265472,230.311707 
	C423.467499,229.772873 423.953278,229.457230 424.733765,229.102661 
	C424.535400,229.554138 424.042297,230.044525 423.265472,230.311707 
z"/>
<path fill="#BAE6F1" opacity="1.000000" stroke="none" 
	d="
M428.992371,521.275818 
	C429.285095,521.156067 429.649109,521.301819 429.996033,521.764160 
	C429.673828,521.900940 429.368744,521.721130 428.992371,521.275818 
z"/>
<path fill="#93D0BB" opacity="1.000000" stroke="none" 
	d="
M356.972717,455.312500 
	C357.279449,455.179169 357.635254,455.317200 357.971649,455.766815 
	C357.642120,455.913574 357.331940,455.748718 356.972717,455.312500 
z"/>
<path fill="#BAE6F1" opacity="1.000000" stroke="none" 
	d="
M430.993408,523.278259 
	C431.287476,523.159790 431.654266,523.304321 431.997040,523.766479 
	C431.670715,523.903137 431.368439,523.722229 430.993408,523.278259 
z"/>
<path fill="#BAE6F1" opacity="1.000000" stroke="none" 
	d="
M429.993744,522.283691 
	C430.273987,522.163269 430.628998,522.306396 430.984558,522.764404 
	C430.679565,522.902039 430.374023,522.724670 429.993744,522.283691 
z"/>
<path fill="#BAE6F1" opacity="1.000000" stroke="none" 
	d="
M130.619385,499.019073 
	C130.874695,499.348633 130.802475,499.772156 130.388885,500.302063 
	C130.128967,499.976654 130.210403,499.544830 130.619385,499.019073 
z"/>
<path fill="#BAE6F1" opacity="1.000000" stroke="none" 
	d="
M454.993103,545.282959 
	C455.299530,545.157593 455.680664,545.292847 456.015930,545.754883 
	C455.669281,545.902405 455.368530,545.723083 454.993103,545.282959 
z"/>
<path fill="#93D0BB" opacity="1.000000" stroke="none" 
	d="
M230.275482,140.002563 
	C230.125916,139.676910 230.245514,139.279846 230.719604,138.939270 
	C230.897583,139.307556 230.721100,139.619370 230.275482,140.002563 
z"/>
<path fill="#F5FDFD" opacity="1.000000" stroke="none" 
	d="
M119.702194,514.933105 
	C119.829758,515.133179 119.697868,515.442078 119.348488,515.881836 
	C119.234909,515.689148 119.338829,515.365540 119.702194,514.933105 
z"/>
<path fill="#93D0BB" opacity="1.000000" stroke="none" 
	d="
M406.104736,500.304321 
	C406.407501,500.209869 406.701599,500.375336 406.977234,500.807190 
	C406.671204,500.903778 406.383636,500.733978 406.104736,500.304321 
z"/>
<path fill="#3DA27B" opacity="1.000000" stroke="none" 
	d="
M464.013000,541.681152 
	C463.782074,541.731812 463.490570,541.503296 463.126160,540.997070 
	C463.352966,540.946838 463.652679,541.174377 464.013000,541.681152 
z"/>
<path fill="#93D0BB" opacity="1.000000" stroke="none" 
	d="
M419.989380,513.391113 
	C420.344116,513.150879 420.760071,513.231323 421.215118,513.664429 
	C420.852997,513.915344 420.451782,513.813538 419.989380,513.391113 
z"/>
<path fill="#BAE6F1" opacity="1.000000" stroke="none" 
	d="
M129.791504,500.737671 
	C129.907181,500.997070 129.777252,501.455963 129.281036,501.941650 
	C129.125122,501.624695 129.335510,501.280945 129.791504,500.737671 
z"/>
<path fill="#93D0BB" opacity="1.000000" stroke="none" 
	d="
M418.958221,512.332275 
	C419.298828,512.177917 419.673737,512.299866 419.992462,512.749268 
	C419.621704,512.920593 419.307129,512.764526 418.958221,512.332275 
z"/>
<path fill="#93D0BB" opacity="1.000000" stroke="none" 
	d="
M406.961365,501.318970 
	C407.308899,501.168884 407.692169,501.294800 408.005981,501.748352 
	C407.623383,501.915619 407.310211,501.755280 406.961365,501.318970 
z"/>
<path fill="#93D0BB" opacity="1.000000" stroke="none" 
	d="
M348.011047,365.704681 
	C347.727417,365.828186 347.382172,365.682404 347.027740,365.230530 
	C347.328827,365.094727 347.639130,365.265045 348.011047,365.704681 
z"/>
<path fill="#BAE6F1" opacity="1.000000" stroke="none" 
	d="
M154.743042,452.003998 
	C154.990784,452.267365 154.857864,452.557495 154.374329,452.896973 
	C154.266464,452.700623 154.379349,452.395447 154.743042,452.003998 
z"/>
<path fill="#93D0BB" opacity="1.000000" stroke="none" 
	d="
M433.293457,222.018051 
	C433.163147,221.719559 433.307526,221.367142 433.761719,221.016449 
	C433.903717,221.333481 433.735931,221.648804 433.293457,222.018051 
z"/>
<path fill="#93D0BB" opacity="1.000000" stroke="none" 
	d="
M432.288330,223.004608 
	C432.168640,222.726471 432.313965,222.379898 432.765991,222.025299 
	C432.899567,222.323578 432.726501,222.629868 432.288330,223.004608 
z"/>
<path fill="#93D0BB" opacity="1.000000" stroke="none" 
	d="
M359.777771,383.613037 
	C359.526978,383.745392 359.321930,383.563110 359.087830,383.108887 
	C359.285187,382.994690 359.540131,383.148529 359.777771,383.613037 
z"/>
<path fill="#93D0BB" opacity="1.000000" stroke="none" 
	d="
M352.985168,373.725250 
	C352.773315,373.768066 352.477722,373.531281 352.085999,373.009796 
	C352.293732,372.965302 352.597565,373.205475 352.985168,373.725250 
z"/>
<path fill="#93D0BB" opacity="1.000000" stroke="none" 
	d="
M351.945862,371.811646 
	C351.635376,371.899414 351.339569,371.694305 351.030273,371.205658 
	C351.331390,371.120972 351.645996,371.319855 351.945862,371.811646 
z"/>
<path fill="#93D0BB" opacity="1.000000" stroke="none" 
	d="
M350.992218,370.714661 
	C350.762299,370.763306 350.452271,370.525543 350.068146,369.982727 
	C350.300049,369.927856 350.606079,370.178070 350.992218,370.714661 
z"/>
<path fill="#93D0BB" opacity="1.000000" stroke="none" 
	d="
M349.969543,368.853333 
	C349.628357,368.948914 349.306763,368.740173 349.004822,368.228394 
	C349.346039,368.133209 349.667542,368.341125 349.969543,368.853333 
z"/>
<path fill="#93D0BB" opacity="1.000000" stroke="none" 
	d="
M355.970886,454.314117 
	C356.278625,454.177704 356.633148,454.315369 356.973083,454.764679 
	C356.644928,454.913605 356.331268,454.750885 355.970886,454.314117 
z"/>
<path fill="#93D0BB" opacity="1.000000" stroke="none" 
	d="
M340.994507,355.746826 
	C340.784546,355.811646 340.495819,355.619568 340.124329,355.171692 
	C340.332947,355.107239 340.624359,355.298584 340.994507,355.746826 
z"/>
<path fill="#93D0BB" opacity="1.000000" stroke="none" 
	d="
M335.286743,312.004181 
	C335.171844,311.732452 335.321503,311.389832 335.772766,311.030518 
	C335.900055,311.320312 335.725708,311.626831 335.286743,312.004181 
z"/>
<path fill="#93D0BB" opacity="1.000000" stroke="none" 
	d="
M336.274780,310.999512 
	C336.172821,310.746521 336.335114,310.419281 336.786865,310.050293 
	C336.897247,310.314087 336.718140,310.619690 336.274780,310.999512 
z"/>
<path fill="#93D0BB" opacity="1.000000" stroke="none" 
	d="
M337.283386,310.013580 
	C337.168793,309.738342 337.324829,309.398438 337.778259,309.036407 
	C337.901794,309.325806 337.727875,309.637390 337.283386,310.013580 
z"/>
<path fill="#93D0BB" opacity="1.000000" stroke="none" 
	d="
M338.279572,309.004883 
	C338.171936,308.740662 338.330597,308.406281 338.783020,308.042419 
	C338.899811,308.320221 338.722839,308.627472 338.279572,309.004883 
z"/>
<path fill="#8FD2F3" opacity="1.000000" stroke="none" 
	d="
M79.299263,270.883850 
	C79.315819,270.809357 79.569649,270.803406 79.915970,270.947876 
	C80.008476,271.098267 79.536530,270.952423 79.299263,270.883850 
z"/>
<path fill="#93D0BB" opacity="1.000000" stroke="none" 
	d="
M347.202759,301.001587 
	C347.071533,300.798706 347.217682,300.554993 347.623657,300.262421 
	C347.875488,300.526978 347.741058,300.776031 347.202759,301.001587 
z"/>
<path fill="#BAE6F1" opacity="1.000000" stroke="none" 
	d="
M131.720596,497.936615 
	C131.841354,498.224304 131.695175,498.600647 131.233002,498.970520 
	C131.095901,498.651093 131.274780,498.338196 131.720596,497.936615 
z"/>
<path fill="#93D0BB" opacity="1.000000" stroke="none" 
	d="
M357.960144,456.327332 
	C358.282440,456.180298 358.643494,456.311371 358.978729,456.760498 
	C358.634918,456.920807 358.316925,456.763123 357.960144,456.327332 
z"/>
<path fill="#93D0BB" opacity="1.000000" stroke="none" 
	d="
M358.970337,457.316223 
	C359.288971,457.178955 359.656189,457.311493 359.983215,457.760681 
	C359.634979,457.913544 359.326965,457.749786 358.970337,457.316223 
z"/>
<path fill="#BAE6F1" opacity="1.000000" stroke="none" 
	d="
M204.089691,460.092957 
	C203.946045,460.405884 203.769653,460.683746 203.320923,461.005920 
	C203.048599,461.050232 202.989059,460.989105 203.054459,460.737732 
	C203.409210,460.321320 203.698578,460.156281 203.987930,459.991241 
	C203.987930,459.991241 204.056961,460.057861 204.089691,460.092957 
z"/>
<path fill="#93D0BB" opacity="1.000000" stroke="none" 
	d="
M362.988098,460.290222 
	C363.263336,460.174469 363.603577,460.325592 363.959778,460.775360 
	C363.668182,460.901703 363.360657,460.729431 362.988098,460.290222 
z"/>
<path fill="#BAE6F1" opacity="1.000000" stroke="none" 
	d="
M203.078125,461.080994 
	C202.935577,461.394897 202.763489,461.678040 202.316559,462.002136 
	C202.041718,462.043152 201.985703,461.985962 202.058365,461.738617 
	C202.417038,461.323883 202.703049,461.156494 202.989059,460.989105 
	C202.989059,460.989105 203.048599,461.050232 203.078125,461.080994 
z"/>
<path fill="#93D0BB" opacity="1.000000" stroke="none" 
	d="
M363.983398,461.296783 
	C364.272980,461.172668 364.620209,461.318481 364.968750,461.768524 
	C364.660370,461.904083 364.350708,461.735413 363.983398,461.296783 
z"/>
<path fill="#BAE6F1" opacity="1.000000" stroke="none" 
	d="
M202.069305,462.072144 
	C201.926971,462.385498 201.757034,462.669830 201.313065,462.997314 
	C201.039017,463.040466 200.984604,462.984589 201.063629,462.743042 
	C201.423660,462.329681 201.704681,462.157837 201.985718,461.985962 
	C201.985703,461.985962 202.041718,462.043152 202.069305,462.072144 
z"/>
<path fill="#93D0BB" opacity="1.000000" stroke="none" 
	d="
M364.984375,462.299255 
	C365.274872,462.174774 365.622406,462.318939 365.968079,462.768677 
	C365.657959,462.905457 365.349701,462.736664 364.984375,462.299255 
z"/>
<path fill="#BAE6F1" opacity="1.000000" stroke="none" 
	d="
M201.065918,463.068695 
	C200.922928,463.383057 200.753067,463.669189 200.307922,463.994659 
	C200.032654,464.034027 199.982132,463.981995 200.067429,463.744019 
	C200.430008,463.332245 200.707306,463.158417 200.984604,462.984589 
	C200.984604,462.984589 201.039017,463.040466 201.065918,463.068695 
z"/>
<path fill="#93D0BB" opacity="1.000000" stroke="none" 
	d="
M365.976776,463.307068 
	C366.276642,463.175568 366.627319,463.316620 366.971558,463.766083 
	C366.652588,463.909546 366.340088,463.744598 365.976776,463.307068 
z"/>
<path fill="#BAE6F1" opacity="1.000000" stroke="none" 
	d="
M200.057587,464.060364 
	C199.914352,464.375336 199.746216,464.663940 199.325897,465.010468 
	C199.073746,465.068390 199.025208,465.024048 199.093658,464.767029 
	C199.435440,464.333984 199.708786,464.157990 199.982132,463.981995 
	C199.982132,463.981995 200.032654,464.034027 200.057587,464.060364 
z"/>
<path fill="#BAE6F1" opacity="1.000000" stroke="none" 
	d="
M197.079254,468.082397 
	C196.934799,468.396667 196.759109,468.676819 196.338104,469.021545 
	C196.092819,469.086121 196.035263,469.034210 196.087311,468.764771 
	C196.419525,468.325439 196.699707,468.155548 196.979889,467.985657 
	C196.979889,467.985657 197.048004,468.048279 197.079254,468.082397 
z"/>
<path fill="#419ED2" opacity="1.000000" stroke="none" 
	d="
M156.317169,488.099976 
	C156.243378,487.900848 156.422699,487.586609 156.857590,487.162292 
	C156.932190,487.363098 156.751236,487.674011 156.317169,488.099976 
z"/>
<path fill="#419ED2" opacity="1.000000" stroke="none" 
	d="
M152.327118,492.033997 
	C152.266983,491.814056 152.474777,491.519989 152.946533,491.142639 
	C153.005356,491.359528 152.800201,491.659698 152.327118,492.033997 
z"/>
<path fill="#16A0FC" opacity="1.000000" stroke="none" 
	d="
M167.061249,471.675598 
	C167.038727,472.024200 166.994553,472.496704 166.767471,472.844666 
	C166.270477,473.391296 166.088745,473.651520 165.995224,473.973358 
	C165.995224,473.973358 165.992325,473.989838 165.980118,473.987183 
	C164.514786,474.627625 162.690506,474.912750 161.668777,475.971985 
	C155.071609,482.811279 148.649689,489.819611 142.170288,496.772491 
	C141.599823,496.631531 141.029358,496.490570 140.458893,496.349609 
	C140.747696,494.260193 140.717667,492.058472 141.404297,490.109192 
	C142.304581,487.553314 143.770157,485.196503 144.978912,482.365936 
	C144.965225,481.977814 145.025803,481.507843 145.434448,481.249542 
	C146.557098,479.321136 147.271088,477.651001 147.985062,475.980896 
	C147.985062,475.980896 148.007172,475.500244 148.362183,475.201721 
	C150.464447,471.585785 152.211716,468.268402 153.958984,464.951019 
	C153.976074,464.521545 153.993164,464.092072 154.344299,463.290039 
	C155.100128,462.255798 155.521912,461.594116 155.943695,460.932434 
	C155.961884,460.506256 155.980057,460.080109 156.336670,459.284729 
	C157.096054,458.252441 157.516998,457.589325 157.937958,456.926208 
	C157.964371,456.201202 157.990814,455.476196 158.382706,454.322876 
	C161.707840,446.840668 164.686813,439.794617 167.579239,432.713287 
	C167.752914,432.288086 167.235596,431.580658 167.039825,431.004547 
	C167.044098,430.566620 167.048386,430.128693 167.413254,429.285217 
	C168.829514,425.897797 169.885178,422.915894 170.940857,419.933990 
	C171.265991,417.555878 171.591110,415.177795 172.327148,412.339783 
	C173.171722,409.588226 173.605408,407.296570 174.039078,405.004913 
	C174.044556,403.947876 174.050034,402.890808 174.358124,401.392761 
	C174.781235,400.301758 174.901718,399.651825 175.022217,399.001862 
	C175.026794,398.258484 175.031357,397.515137 175.365875,396.344116 
	C175.799759,394.944031 175.903702,393.971558 176.007660,392.999115 
	C176.020599,391.618866 176.033539,390.238647 176.428650,388.348175 
	C176.884308,385.227020 176.957809,382.616119 177.031311,380.005188 
	C177.026123,376.309479 177.020935,372.613739 177.296448,368.191559 
	C177.072021,365.301666 176.566895,363.138214 176.061768,360.974792 
	C176.043396,360.231445 176.025040,359.488068 176.257263,358.174683 
	C176.040314,356.722626 175.572800,355.840637 175.105286,354.958649 
	C175.090317,354.521271 175.075363,354.083893 175.322662,353.065369 
	C175.651215,348.855835 175.981598,345.129608 172.064743,342.975800 
	C172.026566,342.250671 171.988388,341.525574 171.960114,340.046631 
	C170.853470,336.206299 171.448288,332.096832 167.010422,330.995636 
	C167.010422,330.995636 167.000000,331.000000 166.998322,330.642731 
	C166.329590,329.524445 165.662567,328.763458 164.995529,328.002441 
	C164.411392,327.189301 163.827271,326.376160 163.118530,324.909241 
	C161.269608,320.996826 161.179535,316.361237 156.029099,315.989410 
	C154.784546,314.839661 153.539993,313.689941 152.150696,311.889893 
	C150.991364,310.170044 149.976776,309.100433 148.962204,308.030884 
	C148.418564,307.846436 147.874924,307.662018 147.132996,306.891998 
	C144.273270,303.884125 141.611832,301.461853 138.950394,299.039612 
	C137.760742,298.533081 136.571091,298.026550 135.149826,296.934387 
	C134.269363,295.906158 133.620514,295.463562 132.971649,295.020966 
	C132.971649,295.020966 132.490799,295.005096 132.193695,294.651062 
	C130.938919,293.864380 129.981247,293.431793 129.023590,292.999176 
	C129.023590,292.999176 129.001587,292.998230 128.961426,292.633453 
	C127.611992,291.514343 126.302704,290.760010 124.993423,290.005676 
	C123.439323,289.202667 121.885216,288.399658 120.125336,286.972565 
	C119.270966,285.905457 118.622368,285.462463 117.973778,285.019470 
	C117.973778,285.019470 117.492203,285.003815 117.182137,284.635803 
	C115.581985,283.844757 114.291901,283.421783 113.001823,282.998779 
	C100.838722,277.010071 88.675613,271.021362 76.512512,265.032654 
	C76.508057,264.706635 76.503601,264.380585 76.499146,264.054565 
	C82.240440,264.496063 87.983147,264.920502 93.721855,265.393372 
	C94.870842,265.488068 96.001068,265.911285 97.145958,265.939545 
	C111.929939,266.304535 126.717514,266.975464 141.499191,266.870087 
	C160.564407,266.734192 179.670227,265.559174 198.121613,260.572388 
	C211.349976,256.997223 221.848160,249.207321 229.251434,236.919235 
	C236.646011,224.645569 240.130936,211.417664 241.974304,197.603607 
	C243.677505,184.839981 245.875961,171.961334 245.677246,159.167191 
	C245.374435,139.673203 245.300873,120.045036 241.446930,100.756615 
	C241.371597,100.379562 241.624008,99.937012 242.096054,97.982353 
	C244.587677,103.652740 246.535751,108.086174 248.750244,113.147583 
	C249.996902,115.865463 250.977158,117.955360 251.957413,120.045258 
	C252.216965,121.151108 252.476517,122.256950 252.876434,123.934319 
	C253.032700,124.676590 253.048615,124.847343 253.064545,125.018105 
	C253.066208,125.446457 253.067871,125.874802 253.099396,126.622284 
	C253.455994,128.701675 253.471603,130.594833 254.157806,132.201553 
	C260.714661,147.554153 263.629791,163.808228 265.968689,180.171906 
	C267.693756,192.241058 268.931610,204.379852 270.675354,217.166565 
	C270.967194,219.229202 270.970154,220.612885 270.701569,222.259613 
	C270.611786,224.683670 270.793549,226.844696 270.975891,229.449066 
	C270.679077,233.579712 270.381744,237.267044 270.084412,240.954361 
	C267.618988,258.801117 266.156036,276.862183 262.399048,294.432800 
	C258.826782,311.139313 254.028992,327.807465 247.628067,343.625732 
	C240.505402,361.227631 231.289612,378.024017 222.354202,394.835754 
	C216.788559,405.307373 210.656509,415.595734 203.691452,425.175934 
	C195.066040,437.039886 185.282166,448.058990 176.068436,459.499207 
	C172.964127,463.353699 170.072556,467.379517 167.061249,471.675598 
z"/>
<path fill="#309DE0" opacity="1.000000" stroke="none" 
	d="
M251.967957,119.666931 
	C250.977158,117.955360 249.996902,115.865463 249.015900,113.388382 
	C250.002945,115.097000 250.990723,117.192802 251.967957,119.666931 
z"/>
<path fill="#239EED" opacity="1.000000" stroke="none" 
	d="
M113.103386,283.258789 
	C114.291901,283.421783 115.581985,283.844757 116.941589,284.622620 
	C116.261726,284.980743 115.512360,284.984039 114.388794,284.983917 
	C113.744713,284.493256 113.474831,284.006012 113.103386,283.258789 
z"/>
<path fill="#309DE0" opacity="1.000000" stroke="none" 
	d="
M253.221054,124.918564 
	C253.048615,124.847343 253.032700,124.676590 253.020554,124.248581 
	C253.142059,124.267220 253.259811,124.543121 253.221054,124.918564 
z"/>
<path fill="#419ED2" opacity="1.000000" stroke="none" 
	d="
M270.427063,240.966278 
	C270.381744,237.267044 270.679077,233.579712 271.244659,229.446106 
	C271.868988,228.995300 272.225098,228.990799 272.581238,228.986298 
	C272.586182,232.770782 272.591125,236.555237 272.370850,240.672607 
	C271.686951,240.996414 271.228302,240.987305 270.427063,240.966278 
z"/>
<path fill="#239EED" opacity="1.000000" stroke="none" 
	d="
M166.750061,431.217560 
	C167.235596,431.580658 167.752914,432.288086 167.579239,432.713287 
	C164.686813,439.794617 161.707840,446.840668 158.404587,453.960754 
	C160.860779,446.494843 163.660538,438.962708 166.750061,431.217560 
z"/>
<path fill="#239EED" opacity="1.000000" stroke="none" 
	d="
M156.153839,316.305573 
	C161.179535,316.361237 161.269608,320.996826 162.994659,324.627686 
	C160.756454,322.207214 158.517517,319.414490 156.153839,316.305573 
z"/>
<path fill="#239EED" opacity="1.000000" stroke="none" 
	d="
M138.998047,299.379822 
	C141.611832,301.461853 144.273270,303.884125 146.966431,306.650757 
	C144.347321,304.570099 141.696503,302.145050 138.998047,299.379822 
z"/>
<path fill="#239EED" opacity="1.000000" stroke="none" 
	d="
M153.617981,465.024048 
	C152.211716,468.268402 150.464447,471.585785 148.380371,474.961853 
	C149.788040,471.712677 151.532516,468.404877 153.617981,465.024048 
z"/>
<path fill="#239EED" opacity="1.000000" stroke="none" 
	d="
M172.085175,343.356964 
	C175.981598,345.129608 175.651215,348.855835 175.323532,352.737122 
	C174.076630,349.906036 173.091125,346.822083 172.085175,343.356964 
z"/>
<path fill="#239EED" opacity="1.000000" stroke="none" 
	d="
M167.045746,331.357117 
	C171.448288,332.096832 170.853470,336.206299 171.950821,339.683655 
	C170.314774,337.289246 168.697937,334.503937 167.045746,331.357117 
z"/>
<path fill="#239EED" opacity="1.000000" stroke="none" 
	d="
M176.740295,380.279968 
	C176.957809,382.616119 176.884308,385.227020 176.444183,387.934387 
	C176.201477,385.538818 176.325378,383.046753 176.740295,380.279968 
z"/>
<path fill="#239EED" opacity="1.000000" stroke="none" 
	d="
M170.590363,420.023712 
	C169.885178,422.915894 168.829514,425.897797 167.428970,428.957123 
	C168.136032,426.060852 169.187958,423.087128 170.590363,420.023712 
z"/>
<path fill="#239EED" opacity="1.000000" stroke="none" 
	d="
M173.759293,405.239929 
	C173.605408,407.296570 173.171722,409.588226 172.390686,411.948792 
	C172.522034,409.836761 173.000763,407.655823 173.759293,405.239929 
z"/>
<path fill="#239EED" opacity="1.000000" stroke="none" 
	d="
M176.039383,361.395203 
	C176.566895,363.138214 177.072021,365.301666 177.303894,367.730652 
	C176.692764,365.936005 176.354874,363.875824 176.039383,361.395203 
z"/>
<path fill="#239EED" opacity="1.000000" stroke="none" 
	d="
M147.644012,476.044342 
	C147.271088,477.651001 146.557098,479.321136 145.459930,481.013977 
	C145.818802,479.393768 146.560883,477.750793 147.644012,476.044342 
z"/>
<path fill="#239EED" opacity="1.000000" stroke="none" 
	d="
M125.041916,290.341949 
	C126.302704,290.760010 127.611992,291.514343 128.960480,292.622437 
	C127.696594,292.210236 126.393501,291.444214 125.041916,290.341949 
z"/>
<path fill="#239EED" opacity="1.000000" stroke="none" 
	d="
M149.000916,308.356964 
	C149.976776,309.100433 150.991364,310.170044 152.013672,311.600525 
	C151.027481,310.868622 150.033539,309.775848 149.000916,308.356964 
z"/>
<path fill="#239EED" opacity="1.000000" stroke="none" 
	d="
M175.743088,393.206299 
	C175.903702,393.971558 175.799759,394.944031 175.380341,395.972656 
	C175.202744,395.157074 175.340637,394.285278 175.743088,393.206299 
z"/>
<path fill="#239EED" opacity="1.000000" stroke="none" 
	d="
M175.073730,355.299805 
	C175.572800,355.840637 176.040314,356.722626 176.258423,357.802856 
	C175.686737,357.214355 175.364456,356.427643 175.073730,355.299805 
z"/>
<path fill="#239EED" opacity="1.000000" stroke="none" 
	d="
M165.020691,328.323822 
	C165.662567,328.763458 166.329590,329.524445 167.000641,330.638123 
	C166.351746,330.208893 165.698807,329.427063 165.020691,328.323822 
z"/>
<path fill="#239EED" opacity="1.000000" stroke="none" 
	d="
M129.156097,293.291748 
	C129.981247,293.431793 130.938919,293.864380 131.953537,294.636963 
	C131.103210,294.512695 130.195908,294.048492 129.156097,293.291748 
z"/>
<path fill="#239EED" opacity="1.000000" stroke="none" 
	d="
M118.023254,285.337250 
	C118.622368,285.462463 119.270966,285.905457 119.962051,286.669678 
	C119.360603,286.545593 118.716667,286.100311 118.023254,285.337250 
z"/>
<path fill="#239EED" opacity="1.000000" stroke="none" 
	d="
M155.628754,460.993164 
	C155.521912,461.594116 155.100128,462.255798 154.359406,462.968048 
	C154.464935,462.363708 154.889374,461.708771 155.628754,460.993164 
z"/>
<path fill="#239EED" opacity="1.000000" stroke="none" 
	d="
M157.623810,456.988464 
	C157.516998,457.589325 157.096054,458.252441 156.355255,458.965332 
	C156.460159,458.360291 156.884918,457.705505 157.623810,456.988464 
z"/>
<path fill="#239EED" opacity="1.000000" stroke="none" 
	d="
M174.773651,399.171326 
	C174.901718,399.651825 174.781235,400.301758 174.381653,400.997009 
	C174.243393,400.475128 174.384232,399.907959 174.773651,399.171326 
z"/>
<path fill="#239EED" opacity="1.000000" stroke="none" 
	d="
M133.020569,295.339111 
	C133.620514,295.463562 134.269363,295.906158 134.961426,296.669861 
	C134.359573,296.546356 133.714539,296.101807 133.020569,295.339111 
z"/>
<path fill="#03AD66" opacity="1.000000" stroke="none" 
	d="
M340.660736,304.745422 
	C340.888977,305.131470 340.888550,305.312500 340.955444,305.756683 
	C340.635895,306.037140 340.249054,306.054474 339.575134,306.119995 
	C336.367798,307.771973 333.135773,308.995239 330.602478,311.071259 
	C327.065613,313.969727 323.766663,317.275848 320.894714,320.834320 
	C318.200714,324.172272 319.583618,331.520966 322.263428,334.953186 
	C327.292023,341.393616 332.073975,348.038483 336.715790,354.765808 
	C341.599365,361.843597 346.189728,369.123444 350.949860,376.287354 
	C351.183228,376.638519 351.815491,376.724701 352.600952,376.995911 
	C355.018066,381.248138 356.735168,385.669525 359.239624,389.587677 
	C368.013031,403.313385 376.966858,416.926483 386.024048,430.467346 
	C395.828979,445.126129 405.965485,459.564270 415.689484,474.275726 
	C421.849487,483.595276 427.399750,493.315857 433.453705,502.708221 
	C437.273651,508.634705 441.601776,514.231140 445.545807,520.080872 
	C448.642334,524.673706 451.563324,529.390259 454.379822,534.159607 
	C454.718597,534.733276 453.915009,535.981567 453.294403,536.993652 
	C452.947876,537.070129 452.457123,537.042358 452.190430,536.683777 
	C449.275360,534.229736 446.626923,532.134216 443.688110,529.884399 
	C442.576752,528.503601 441.755798,527.277161 440.946411,525.685974 
	C436.290924,521.239685 431.623810,517.158081 426.956696,513.076538 
	C426.956696,513.076538 426.969849,513.030457 426.935364,512.685974 
	C424.916504,510.916443 422.932159,509.491394 420.947784,508.066345 
	C420.947784,508.066345 420.459869,508.038910 420.220612,507.663422 
	C419.299469,506.552094 418.617584,505.816284 417.935699,505.080475 
	C417.935699,505.080475 417.446014,505.064545 417.181580,504.702515 
	C415.925781,503.584686 414.934448,502.828857 413.943085,502.073029 
	C413.628784,501.950104 413.371674,501.752716 413.045868,500.913879 
	C411.600800,499.249542 410.281616,498.152130 408.962463,497.054718 
	C408.962463,497.054718 408.992676,497.008179 408.952698,496.675354 
	C407.596741,495.255585 406.280762,494.168640 404.964783,493.081726 
	C404.964783,493.081726 404.956451,493.044922 404.911377,492.691895 
	C403.900116,491.913391 402.933929,491.487915 401.967773,491.062439 
	C401.967773,491.062439 401.980499,491.021698 401.937073,490.699341 
	C401.235687,489.955750 400.577728,489.534515 399.919769,489.113312 
	C398.464264,487.851624 397.008728,486.589966 395.229248,484.851868 
	C394.260620,483.934326 393.615997,483.493195 392.971375,483.052063 
	C392.971375,483.052063 392.986664,483.012329 392.949402,482.665863 
	C391.016602,478.563171 389.031799,474.916595 383.975372,475.041962 
	C383.653351,474.929871 383.389954,474.737488 383.082214,473.874969 
	C379.966827,470.548309 376.954468,467.811432 373.942108,465.074554 
	C369.474579,461.086334 365.051666,457.046265 360.513306,453.140320 
	C359.084747,451.910858 357.346466,451.041290 355.390167,449.987915 
	C354.437225,448.859039 353.844055,447.749237 353.085297,446.002258 
	C349.916382,442.604218 346.913025,439.843323 343.909668,437.082397 
	C343.600525,436.963501 343.351593,436.767975 342.935944,435.966919 
	C341.443817,434.653198 340.178589,433.868408 338.913361,433.083618 
	C338.481598,433.069458 338.049866,433.055328 337.301941,432.637634 
	C337.188782,428.603485 334.794586,428.073120 331.981934,428.042236 
	C331.158112,427.122223 330.334320,426.202209 329.242737,424.772827 
	C328.637970,423.356995 328.552002,422.188232 327.923340,421.586487 
	C323.739716,417.582245 319.563110,413.551178 315.114746,409.853027 
	C313.444458,408.464417 311.055267,407.940582 308.993866,407.022461 
	C308.993866,407.022461 308.995850,407.001343 308.960449,406.660889 
	C306.276581,403.893768 303.628143,401.467102 300.979675,399.040436 
	C300.979675,399.040436 300.953613,398.547302 300.933777,398.301727 
	C297.164185,394.732941 293.414398,391.409729 289.315369,388.075592 
	C288.966125,388.064667 288.962280,388.035034 288.936218,387.677856 
	C286.933167,385.900177 284.956207,384.479614 282.979279,383.059052 
	C282.473511,382.477905 281.967743,381.896790 281.222931,380.801117 
	C280.305969,379.547943 279.628052,378.809326 278.950134,378.070679 
	C278.950134,378.070679 278.463989,378.043579 278.220734,378.029419 
	C276.185974,374.136047 272.961914,373.858765 270.384888,376.304932 
	C265.631927,380.816498 261.438354,385.925537 257.097351,390.861023 
	C250.603378,398.244232 244.183472,405.692566 237.732086,413.113220 
	C237.186722,412.788452 236.641357,412.463684 236.095993,412.138885 
	C241.028717,401.987640 245.961456,391.836365 250.900085,381.312500 
	C250.905975,380.939911 250.948349,380.450836 251.310303,380.167358 
	C251.959488,379.733337 252.394623,379.656982 252.512711,379.421570 
	C257.326202,369.825714 262.166534,360.242065 266.804077,350.561340 
	C267.214935,349.703705 266.280396,348.201538 265.970703,346.998718 
	C265.982422,346.558655 265.994171,346.118561 266.386475,345.334076 
	C267.247009,344.879974 268.075470,344.886414 268.156342,344.643738 
	C270.784393,336.759094 273.340485,328.850464 275.907288,320.945404 
	C275.907288,320.945404 275.945404,320.473724 276.323425,320.179016 
	C278.781281,314.632690 280.905212,309.397461 282.871368,304.103638 
	C283.064240,303.584412 282.287018,302.704926 281.960052,301.992676 
	C281.969269,301.551788 281.978516,301.110931 282.363129,300.263977 
	C284.492279,292.069489 286.436615,284.316711 287.904358,276.474731 
	C288.477173,273.414215 287.977997,270.153107 287.967102,266.983368 
	C287.972870,266.544891 287.978638,266.106445 288.318359,265.162842 
	C288.755219,262.430603 288.858063,260.203522 288.960938,257.976440 
	C288.979187,252.637375 288.997467,247.298294 289.389893,241.407104 
	C291.031860,235.341019 293.572601,230.929733 299.534454,229.386368 
	C299.798828,229.317917 299.870575,228.505341 300.032074,228.039383 
	C300.467377,228.023666 300.902649,228.007950 301.910767,228.265518 
	C308.003418,226.719986 313.523193,224.901169 319.042999,223.082336 
	C319.476166,223.060730 319.909363,223.039139 320.868347,223.259323 
	C322.272583,223.016220 323.150970,222.531357 324.029388,222.046478 
	C324.463318,222.022568 324.897217,221.998657 325.821228,222.193420 
	C326.887543,221.965195 327.463837,221.518295 328.040100,221.071381 
	C328.470337,221.046783 328.900574,221.022186 329.653137,220.981812 
	C332.645813,220.922668 335.426270,221.348312 337.966766,220.751846 
	C347.218628,218.579636 356.357788,215.930557 365.600006,213.713593 
	C378.219025,210.686646 390.906738,207.947235 403.538879,204.973511 
	C410.614441,203.307831 417.614899,201.323349 424.689575,199.653595 
	C433.132507,197.660934 441.628235,195.892807 450.080658,193.939087 
	C452.892731,193.289093 455.641785,192.366440 459.357025,192.338837 
	C458.029968,193.896408 456.791534,195.541260 455.359558,196.995529 
	C450.631165,201.797623 445.832886,206.530884 441.016907,211.631409 
	C434.531555,214.025513 430.267334,218.544266 426.996002,224.601929 
	C422.950714,227.811203 418.690277,230.364594 415.041595,233.606476 
	C408.120728,239.755707 401.674957,246.437286 394.806122,252.648087 
	C383.658875,262.727478 372.249146,272.516724 361.107422,282.602142 
	C354.387756,288.684784 347.930878,295.060669 341.459259,301.410126 
	C340.763184,302.093079 340.757843,303.480042 340.660736,304.745422 
z"/>
<path fill="#23A571" opacity="1.000000" stroke="none" 
	d="
M265.704102,347.218018 
	C266.280396,348.201538 267.214935,349.703705 266.804077,350.561340 
	C262.166534,360.242065 257.326202,369.825714 252.512711,379.421570 
	C252.394623,379.656982 251.959488,379.733337 251.325073,379.922363 
	C253.405777,374.125000 255.732422,368.244293 258.291992,362.466797 
	C260.538147,357.396851 263.045502,352.442657 265.704102,347.218018 
z"/>
<path fill="#19A26C" opacity="1.000000" stroke="none" 
	d="
M287.684937,267.264832 
	C287.977997,270.153107 288.477173,273.414215 287.904358,276.474731 
	C286.436615,284.316711 284.492279,292.069489 282.371338,299.933350 
	C283.803650,289.187958 285.603210,278.367126 287.684937,267.264832 
z"/>
<path fill="#23A571" opacity="1.000000" stroke="none" 
	d="
M275.554840,321.030975 
	C273.340485,328.850464 270.784393,336.759094 268.156342,344.643738 
	C268.075470,344.886414 267.247009,344.879974 266.393951,345.003967 
	C269.081329,337.051056 272.141846,329.083801 275.554840,321.030975 
z"/>
<path fill="#19A26C" opacity="1.000000" stroke="none" 
	d="
M281.691223,302.238922 
	C282.287018,302.704926 283.064240,303.584412 282.871368,304.103638 
	C280.905212,309.397461 278.781281,314.632690 276.346527,319.943542 
	C277.801849,314.163574 279.612122,308.324371 281.691223,302.238922 
z"/>
<path fill="#19A26C" opacity="1.000000" stroke="none" 
	d="
M288.657715,257.983093 
	C288.858063,260.203522 288.755219,262.430603 288.327698,264.834076 
	C287.831696,263.816040 287.660339,262.621613 287.209900,261.192871 
	C286.963959,260.231293 286.997192,259.504059 287.087463,258.417419 
	C287.547821,258.035248 287.951172,258.012512 288.657715,257.983093 
z"/>
<path fill="#1FA771" opacity="1.000000" stroke="none" 
	d="
M384.122437,475.338623 
	C389.031799,474.916595 391.016602,478.563171 392.929901,482.674408 
	C390.054932,480.564697 387.162201,478.100006 384.122437,475.338623 
z"/>
<path fill="#1FA771" opacity="1.000000" stroke="none" 
	d="
M373.989136,465.413208 
	C376.954468,467.811432 379.966827,470.548309 382.966278,473.656250 
	C379.980957,471.268860 377.008575,468.510376 373.989136,465.413208 
z"/>
<path fill="#1FA771" opacity="1.000000" stroke="none" 
	d="
M405.001343,493.418091 
	C406.280762,494.168640 407.596741,495.255585 408.929138,496.689941 
	C407.643005,495.943085 406.340454,494.848785 405.001343,493.418091 
z"/>
<path fill="#1FA771" opacity="1.000000" stroke="none" 
	d="
M409.001221,497.393616 
	C410.281616,498.152130 411.600800,499.249542 412.932129,500.696106 
	C411.642853,499.941010 410.341400,498.836731 409.001221,497.393616 
z"/>
<path fill="#1FA771" opacity="1.000000" stroke="none" 
	d="
M413.952942,502.429718 
	C414.934448,502.828857 415.925781,503.584686 416.937195,504.685760 
	C416.235718,505.015167 415.514191,504.999298 414.434296,504.953735 
	C414.038177,504.211456 414.000488,503.498932 413.952942,502.429718 
z"/>
<path fill="#1FA771" opacity="1.000000" stroke="none" 
	d="
M402.026398,491.398132 
	C402.933929,491.487915 403.900116,491.913391 404.892761,492.688843 
	C403.974487,492.603790 403.029755,492.168823 402.026398,491.398132 
z"/>
<path fill="#1FA771" opacity="1.000000" stroke="none" 
	d="
M399.980469,489.420044 
	C400.577728,489.534515 401.235687,489.955750 401.916504,490.705078 
	C401.306641,490.597687 400.673920,490.162231 399.980469,489.420044 
z"/>
<path fill="#1FA771" opacity="1.000000" stroke="none" 
	d="
M393.016479,483.366364 
	C393.615997,483.493195 394.260620,483.934326 394.933472,484.699921 
	C394.328369,484.576447 393.694977,484.128571 393.016479,483.366364 
z"/>
<path fill="#419ED2" opacity="1.000000" stroke="none" 
	d="
M270.973145,221.996582 
	C270.970154,220.612885 270.967194,219.229202 270.951660,217.431274 
	C271.254425,217.007462 271.569611,216.995422 272.115234,216.969467 
	C272.472107,218.366730 272.598480,219.775452 272.360443,221.598297 
	C271.655060,222.007156 271.314117,222.001877 270.973145,221.996582 
z"/>
<path fill="#19A26C" opacity="1.000000" stroke="none" 
	d="
M299.645569,228.064514 
	C299.870575,228.505341 299.798828,229.317917 299.534454,229.386368 
	C293.572601,230.929733 291.031860,235.341019 289.398987,240.941376 
	C289.016022,239.873199 289.136230,238.696609 288.956451,237.567810 
	C288.137421,232.424637 290.529602,229.820526 295.438507,229.038651 
	C296.729645,228.832993 297.986481,228.411835 299.645569,228.064514 
z"/>
<path fill="#19A26C" opacity="1.000000" stroke="none" 
	d="
M318.654358,223.104187 
	C313.523193,224.901169 308.003418,226.719986 302.237396,228.258667 
	C307.416046,226.361038 312.840881,224.743530 318.654358,223.104187 
z"/>
<path fill="#19A26C" opacity="1.000000" stroke="none" 
	d="
M323.689209,222.035141 
	C323.150970,222.531357 322.272583,223.016220 321.193542,223.250031 
	C321.778259,222.673920 322.563629,222.348862 323.689209,222.035141 
z"/>
<path fill="#19A26C" opacity="1.000000" stroke="none" 
	d="
M327.740784,221.066895 
	C327.463837,221.518295 326.887543,221.965195 326.146759,222.177582 
	C326.468658,221.649521 326.955078,221.355957 327.740784,221.066895 
z"/>
<path fill="#23A571" opacity="1.000000" stroke="none" 
	d="
M309.139771,407.322632 
	C311.055267,407.940582 313.444458,408.464417 315.114746,409.853027 
	C319.563110,413.551178 323.739716,417.582245 327.923340,421.586487 
	C328.552002,422.188232 328.637970,423.356995 328.962769,424.630310 
	C325.226746,422.326019 321.502869,419.654816 317.418243,416.962982 
	C314.466888,413.835846 311.876282,410.729340 309.139771,407.322632 
z"/>
<path fill="#19A26C" opacity="1.000000" stroke="none" 
	d="
M343.962158,437.420227 
	C346.913025,439.843323 349.916382,442.604218 352.929321,445.718048 
	C349.964172,443.300018 346.989441,440.529053 343.962158,437.420227 
z"/>
<path fill="#23A571" opacity="1.000000" stroke="none" 
	d="
M332.124939,428.331116 
	C334.794586,428.073120 337.188782,428.603485 336.978333,432.621460 
	C335.403290,431.545807 333.835632,430.082886 332.124939,428.331116 
z"/>
<path fill="#19A26C" opacity="1.000000" stroke="none" 
	d="
M338.973175,433.432007 
	C340.178589,433.868408 341.443817,434.653198 342.830933,435.750793 
	C341.646240,435.302551 340.339630,434.541473 338.973175,433.432007 
z"/>
<path fill="#1FA771" opacity="1.000000" stroke="none" 
	d="
M443.978485,530.038757 
	C446.626923,532.134216 449.275360,534.229736 451.944855,536.674805 
	C451.174011,537.045654 450.382111,537.066895 449.200439,537.169922 
	C448.810699,537.251770 448.846405,537.231201 448.854675,536.857910 
	C448.158325,536.069153 447.453674,535.653687 446.749054,535.238159 
	C446.749054,535.238159 447.020599,535.074463 446.941345,534.814148 
	C445.900909,533.048828 444.939697,531.543762 443.978485,530.038757 
z"/>
<path fill="#93D0BB" opacity="1.000000" stroke="none" 
	d="
M196.956238,467.638245 
	C196.699707,468.155548 196.419525,468.325439 196.061157,468.736145 
	C195.133530,468.998199 194.284088,469.019440 193.002518,469.012604 
	C194.668915,465.879883 196.767441,462.775238 198.973877,459.337067 
	C200.334702,457.685822 201.587601,456.368073 203.096344,454.920471 
	C203.495346,455.200165 203.638550,455.609772 203.967102,456.647644 
	C204.066803,457.994904 203.981125,458.713928 203.941681,459.712097 
	C203.698578,460.156281 203.409210,460.321320 203.054459,460.737732 
	C202.703049,461.156494 202.417038,461.323883 202.058380,461.738647 
	C201.704681,462.157837 201.423660,462.329681 201.063629,462.743042 
	C200.707306,463.158417 200.430008,463.332245 200.067429,463.744019 
	C199.708786,464.157990 199.435440,464.333984 199.071106,464.743103 
	C198.297607,465.747772 197.615112,466.519318 196.956238,467.638245 
z"/>
<path fill="#BAE6F1" opacity="1.000000" stroke="none" 
	d="
M37.451836,258.942749 
	C37.053776,258.259369 37.072765,257.553070 37.120926,256.498779 
	C38.583218,256.383942 40.016342,256.617096 41.779579,257.040894 
	C42.090725,257.601685 42.071762,257.971741 42.052719,258.619720 
	C40.658051,258.905060 39.263466,258.912476 37.451836,258.942749 
z"/>
<path fill="#1FA771" opacity="1.000000" stroke="none" 
	d="
M426.996521,513.415649 
	C431.623810,517.158081 436.290924,521.239685 440.590637,525.635315 
	C438.411194,525.382629 436.599213,524.815857 434.787231,524.249084 
	C434.787231,524.249084 434.736511,524.255066 434.711700,524.264587 
	C433.335602,522.243408 432.040009,520.172546 430.615204,518.194824 
	C429.505615,516.654663 428.235229,515.230469 426.996521,513.415649 
z"/>
<path fill="#1FA771" opacity="1.000000" stroke="none" 
	d="
M420.995911,508.408081 
	C422.932159,509.491394 424.916504,510.916443 426.912262,512.692261 
	C424.963776,511.611969 423.003906,510.180878 420.995911,508.408081 
z"/>
<path fill="#1FA771" opacity="1.000000" stroke="none" 
	d="
M417.975769,505.393494 
	C418.617584,505.816284 419.299469,506.552094 419.977112,507.643311 
	C419.320496,507.234650 418.668182,506.470551 417.975769,505.393494 
z"/>
<path fill="#23A571" opacity="1.000000" stroke="none" 
	d="
M283.129822,383.351746 
	C284.956207,384.479614 286.933167,385.900177 288.924255,387.674927 
	C287.052399,386.567596 285.166351,385.106018 283.129822,383.351746 
z"/>
<path fill="#23A571" opacity="1.000000" stroke="none" 
	d="
M278.985748,378.384705 
	C279.628052,378.809326 280.305969,379.547943 280.979004,380.640472 
	C280.323212,380.229156 279.672272,379.463928 278.985748,378.384705 
z"/>
<path fill="#23A571" opacity="1.000000" stroke="none" 
	d="
M301.015747,399.381470 
	C303.628143,401.467102 306.276581,403.893768 308.950928,406.666382 
	C307.895966,406.686707 306.815155,406.361115 305.396057,405.988770 
	C303.722443,403.868866 302.387115,401.795685 301.015747,399.381470 
z"/>
<path fill="#309DE0" opacity="1.000000" stroke="none" 
	d="
M270.701569,222.259613 
	C271.314117,222.001877 271.655060,222.007156 272.248596,222.011017 
	C272.593353,224.049408 272.685547,226.089203 272.679474,228.557648 
	C272.225098,228.990799 271.868988,228.995300 271.244080,229.002762 
	C270.793549,226.844696 270.611786,224.683670 270.701569,222.259613 
z"/>
<path fill="#309DE0" opacity="1.000000" stroke="none" 
	d="
M166.217621,473.872406 
	C166.088745,473.651520 166.270477,473.391296 166.754883,473.081604 
	C166.894501,473.304749 166.718048,473.571686 166.217621,473.872406 
z"/>
<path fill="#3DA27B" opacity="1.000000" stroke="none" 
	d="
M434.897827,524.562683 
	C436.599213,524.815857 438.411194,525.382629 440.579010,526.000061 
	C441.755798,527.277161 442.576752,528.503601 443.688110,529.884399 
	C444.939697,531.543762 445.900909,533.048828 446.810425,534.904602 
	C446.054321,535.088196 445.349915,534.920959 444.307800,534.893677 
	C443.538208,534.318542 443.106262,533.603638 442.321655,532.959839 
	C439.648804,530.312744 437.328644,527.594543 434.897827,524.562683 
z"/>
<path fill="#3DA27B" opacity="1.000000" stroke="none" 
	d="
M446.812439,535.545044 
	C447.453674,535.653687 448.158325,536.069153 448.848633,536.840942 
	C448.181488,536.748779 447.528656,536.300354 446.812439,535.545044 
z"/>
</svg>
